<?xml version="1.0" standalone="no"?><!DOCTYPE svg PUBLIC "-//W3C//DTD SVG 1.1//EN" "http://www.w3.org/Graphics/SVG/1.1/DTD/svg11.dtd" ><svg xmlns="http://www.w3.org/2000/svg"><metadata></metadata><defs><font id="fonteditor" horiz-adv-x="1000"><font-face font-family=" [W]åb?SïSïÿ^UFu(ÿ	^8ÄOS" font-weight="400" font-stretch="normal" units-per-em="1000" panose-1="0 0 0 0 0 0 0 0 0 0" ascent="880" descent="-120" x-height="0" bbox="-8 -203 1006 802" underline-thickness="50" underline-position="-75" unicode-range="U+2f00-ff1f" /><missing-glyph horiz-adv-x="1000" d="M190 779 L810 779 L810 -180 L190 -180 L190 779 ZM738 731 L261 731 L500 339 L738 731 ZM762 -93 L762 692 L524 299 L762 -93 ZM738 -132 L500 260 L261 -132 L738 -132 ZM237 -93 L476 299 L237 692 L237 -93 Z" /><glyph glyph-name="cid273" unicode="&#xff0c;" d="M88 -166 Q54 -166 54 -141 L54 19 Q54 30 64 35 Q74 40 88 41 Q136 42 165 27 Q194 12 207 -11 Q220 -34 217.5 -61.5 Q215 -89 199 -112.5 Q183 -136 155 -151.5 Q127 -167 88 -166 Z" /><glyph glyph-name="cid292" unicode="&#xff1f;" d="M582 717 Q604 717 625 708.5 Q646 700 662.5 686 Q679 672 689 653 Q699 634 699 612 L699 392 Q699 370 690 349.5 Q681 329 665 313.5 Q649 298 628 289 Q607 280 583 280 L462 280 Q451 280 441.5 272 Q432 264 432 252 L432 96 Q432 68 416 54 Q400 40 381.5 39.5 Q363 39 347 53 Q331 67 331 96 L331 269 Q331 303 351 328 Q371 353 406 353 L536 353 Q573 353 588.5 368 Q604 383 604 416 L604 577 Q604 604 587.5 620.5 Q571 637 539 637 L274 637 Q254 637 238 624 Q222 611 222 582 L222 409 Q222 395 214 388 Q206 381 194 382 Q148 384 116.5 410 Q85 436 68.5 473.5 Q52 511 51.5 553.5 Q51 596 67 632.5 Q83 669 115.5 693 Q148 717 198 717 L582 717 ZM381 2 Q406 2 423.5 -15.5 Q441 -33 441 -58 Q441 -83 423.5 -100.5 Q406 -118 381 -118 Q356 -118 338.5 -100.5 Q321 -83 321 -58 Q321 -33 338.5 -15.5 Q356 2 381 2 Z" /><glyph glyph-name="cid953" unicode="&#x7231;" d="M364 -39 Q341 -39 330.5 -28.5 Q320 -18 320.5 -6 Q321 6 331.5 16.5 Q342 27 360 27 L433 27 Q470 27 501.5 20 Q533 13 562 1 L616 -21 L735 54 Q747 62 747.5 67.5 Q748 73 731 73 L310 73 L272 -77 Q257 -135 226 -164 Q195 -193 158 -192 Q121 -191 83 -159.5 Q45 -128 16 -66 Q10 -53 15 -40.5 Q20 -28 35 -28 L130 -28 Q159 -28 174.5 -15.5 Q190 -3 195 20 L243 213 L61 213 Q47 213 37 223.5 Q27 234 27 248 Q27 262 37 272.5 Q47 283 61 283 L261 283 L278 350 Q285 377 303 387 Q321 397 339.5 393 Q358 389 370 374.5 Q382 360 377 339 L363 283 L942 283 Q956 283 966 272.5 Q976 262 976 248 Q976 234 966 223.5 Q956 213 942 213 L345 213 L327 143 L858 143 Q885 143 899.5 133 Q914 123 917.5 108.5 Q921 94 914 78 Q907 62 890 51 L711 -60 L758 -80 Q778 -88 796 -91 Q814 -94 840 -94 L967 -94 Q992 -94 983 -113 Q961 -160 929.5 -176.5 Q898 -193 860.5 -191 Q823 -189 782.5 -174 Q742 -159 703 -144 L626 -114 L556 -158 Q542 -166 529.5 -171.5 Q517 -177 501 -180.5 Q485 -184 465 -185.5 Q445 -187 417 -187 L326 -187 Q306 -187 296 -174.5 Q286 -162 286 -147.5 Q286 -133 296 -120.5 Q306 -108 326 -108 L393 -108 Q417 -108 435 -107.5 Q453 -107 468 -104 Q483 -101 496.5 -95 Q510 -89 526 -79 L529 -77 L481 -58 Q461 -50 443.5 -44.5 Q426 -39 394 -39 L364 -39 ZM754 583 Q761 600 778.5 607 Q796 614 813 607 Q830 599 837 582 Q844 565 837 548 L807 481 L896 481 Q925 481 945.5 460.5 Q966 440 966 411 L966 356 Q966 334 954 323 Q942 312 928 312 Q914 312 902 323 Q890 334 890 356 L890 382 Q890 395 881 403 Q872 411 860 411 L186 411 Q169 411 157.5 399.5 Q146 388 146 371 L146 330 Q146 316 138.5 309.5 Q131 303 118 305 Q89 310 67.5 325 Q46 340 34 360 Q22 380 20 401 Q18 422 28 440 Q38 458 60.5 469.5 Q83 481 120 481 L176 481 Q159 503 159 528 Q159 545 167 560.5 Q175 576 188.5 587.5 Q202 599 219 605.5 Q236 612 255 612 Q264 611 270.5 607.5 Q277 604 277 596 L277 481 L446 481 Q429 503 429 528 Q429 545 437 560.5 Q445 576 458.5 587.5 Q472 599 489 605.5 Q506 612 525 612 Q534 611 540.5 607.5 Q547 604 547 596 L547 481 L708 481 L754 583 ZM67 635 Q48 635 38.5 645.5 Q29 656 29 669 Q29 682 38.5 692.5 Q48 703 67 703 L819 703 Q833 703 841.5 712.5 Q850 722 850 736 L850 770 Q850 792 873 789 Q914 783 938 758.5 Q962 734 965 706.5 Q968 679 947.5 657 Q927 635 879 635 L67 635 Z" /><glyph glyph-name="cid988" unicode="&#x628a;" d="M514 -179 Q484 -179 461.5 -169.5 Q439 -160 424 -143.5 Q409 -127 401.5 -105.5 Q394 -84 394 -59 L394 651 Q394 693 423 722 Q452 751 494 751 L826 751 Q859 751 884.5 729.5 Q910 708 927.5 672.5 Q945 637 954 592 Q963 547 964.5 499.5 Q966 452 958.5 407 Q951 362 935 326.5 Q919 291 894.5 269.5 Q870 248 836 248 L561 248 Q547 248 537 258.5 Q527 269 527 283 Q527 297 537 307 Q547 317 561 317 L804 317 Q826 317 841 342 Q856 367 864 404 Q872 441 872.5 484.5 Q873 528 865.5 565 Q858 602 843 627 Q828 652 804 652 L543 652 Q523 652 508 637 Q493 622 493 602 L493 -27 Q493 -52 507 -69 Q521 -86 553 -86 L790 -86 Q807 -86 820.5 -78 Q834 -70 834 -42 L834 126 Q834 140 844 149.5 Q854 159 867 155 Q908 144 935 114.5 Q962 85 976 48 Q990 11 990 -29 Q990 -69 976.5 -102.5 Q963 -136 935.5 -157.5 Q908 -179 866 -179 L514 -179 ZM246 136 L246 -69 Q246 -93 237 -115.5 Q228 -138 212 -155 Q196 -172 175 -182.5 Q154 -193 130 -193 Q122 -193 116.5 -187.5 Q111 -182 111 -174 L111 136 L44 136 Q27 136 15.5 147.5 Q4 159 4 176 Q4 193 15.5 204.5 Q27 216 44 216 L111 216 L111 518 L44 518 Q27 518 15.5 529.5 Q4 541 4 558 Q4 575 15.5 586.5 Q27 598 44 598 L111 598 L111 726 Q111 757 132 773.5 Q153 790 178.5 790 Q204 790 225 774.5 Q246 759 246 726 L246 598 L309 598 Q326 598 337.5 586.5 Q349 575 349 558 Q349 541 337.5 529.5 Q326 518 309 518 L246 518 L246 216 L309 216 Q326 216 337.5 204.5 Q349 193 349 176 Q349 159 337.5 147.5 Q326 136 309 136 L246 136 ZM732 406 Q732 384 718 373 Q704 362 687.5 362 Q671 362 657.5 372.5 Q644 383 644 406 L644 571 Q644 592 657.5 603 Q671 614 687.5 614.5 Q704 615 718 604.5 Q732 594 732 572 L732 406 Z" /><glyph glyph-name="cid1039" unicode="&#x5b9d;" d="M139 142 Q122 142 110.5 153.5 Q99 165 99 182 Q99 199 110.5 210.5 Q122 222 139 222 L447 222 L447 354 Q447 371 435.5 382.5 Q424 394 407 394 L109 394 Q92 394 80.5 405.5 Q69 417 69 434 Q69 451 80.5 462.5 Q92 474 109 474 L914 474 Q931 474 942.5 462.5 Q954 451 954 434 Q954 417 942.5 405.5 Q931 394 914 394 L616 394 Q599 394 587.5 382.5 Q576 371 576 354 L576 222 L884 222 Q901 222 912.5 210.5 Q924 199 924 182 Q924 165 912.5 153.5 Q901 142 884 142 L576 142 L576 96 Q576 70 571.5 42.5 Q567 15 554.5 -9 Q542 -33 520.5 -49.5 Q499 -66 465 -70 Q457 -71 452 -64.5 Q447 -58 447 -50 L447 142 L139 142 ZM467 751 Q467 770 480 783 Q493 796 511 796 Q530 796 543 783 Q556 770 556 751 L556 716 L907 716 Q936 716 956.5 695.5 Q977 675 977 646 L977 559 Q977 537 965 526 Q953 515 939 515 Q925 515 913 526 Q901 537 901 559 L901 607 Q901 619 892.5 627.5 Q884 636 871 636 L209 636 Q192 636 180.5 624.5 Q169 613 169 596 L169 537 Q169 523 161.5 514.5 Q154 506 141 507 Q99 508 71.5 524.5 Q44 541 31 564 Q18 587 18 613.5 Q18 640 31.5 663 Q45 686 70.5 701 Q96 716 133 716 L467 716 L467 751 ZM79 -169 Q62 -169 50.5 -157.5 Q39 -146 39 -129 Q39 -112 50.5 -100.5 Q62 -89 79 -89 L944 -89 Q961 -89 972.5 -100.5 Q984 -112 984 -129 Q984 -146 972.5 -157.5 Q961 -169 944 -169 L79 -169 ZM782 -62 Q744 -58 722 -44 Q700 -30 691.5 -12 Q683 6 686.5 26.5 Q690 47 702.5 64.5 Q715 82 735.5 95 Q756 108 782 111 Q793 112 801.5 107 Q810 102 810 93 L810 -42 Q810 -65 782 -62 Z" /><glyph glyph-name="cid1057" unicode="&#x5907;" d="M318 -46 Q298 -46 288 -33.5 Q278 -21 278 -6 Q278 9 288 21.5 Q298 34 318 34 L473 34 L473 112 L265 112 Q253 112 244 103.5 Q235 95 235 82 L235 -162 Q235 -175 226.5 -184 Q218 -193 205 -192 Q156 -190 122.5 -159.5 Q89 -129 72.5 -84 Q56 -39 56.5 13 Q57 65 75.5 109 Q94 153 129.5 182.5 Q165 212 220 212 L757 212 Q810 212 844.5 182 Q879 152 896 107.5 Q913 63 912.5 11 Q912 -41 894.5 -85.5 Q877 -130 843.5 -160 Q810 -190 761 -190 L308 -190 Q291 -190 282.5 -179.5 Q274 -169 274 -156 Q274 -143 282.5 -132.5 Q291 -122 308 -122 L473 -122 L473 -46 L318 -46 ZM131 488 Q117 488 107.5 500 Q98 512 97.5 527 Q97 542 107.5 554 Q118 566 144 566 L199 566 Q231 566 260.5 560.5 Q290 555 316 542 L506 451 L759 574 Q765 577 771 582.5 Q777 588 778.5 594 Q780 600 773 604 Q766 608 747 607 L176 607 Q128 607 102.5 630 Q77 653 76.5 683.5 Q76 714 102 744 Q128 774 184 788 Q195 790 202.5 782.5 Q210 775 210 764 L210 720 Q210 706 219.5 696.5 Q229 687 243 687 L821 687 Q861 687 885 668.5 Q909 650 914.5 624 Q920 598 905.5 570.5 Q891 543 854 525 L607 403 L663 377 Q688 366 717.5 362.5 Q747 359 795 359 L951 359 Q965 359 971.5 353.5 Q978 348 979 340 Q980 332 977 323.5 Q974 315 970 309 Q941 270 911 252 Q881 234 841.5 234.5 Q802 235 749 253 Q696 271 622 304 L512 356 L390 296 Q364 284 343.5 275 Q323 266 302.5 260 Q282 254 259.5 251 Q237 248 208 248 L78 248 Q55 248 44 261.5 Q33 275 33 290.5 Q33 306 44 319.5 Q55 333 78 333 L191 333 Q209 333 225 334.5 Q241 336 257.5 339.5 Q274 343 292.5 350 Q311 357 334 368 L410 405 L273 471 Q236 488 193 488 L131 488 ZM734 -122 Q758 -122 776 -104.5 Q794 -87 804.5 -61 Q815 -35 816.5 -5 Q818 25 810.5 51 Q803 77 785.5 94.5 Q768 112 740 112 L563 112 L563 34 L717 34 Q734 34 745.5 22.5 Q757 11 757 -6 Q757 -23 745.5 -34.5 Q734 -46 717 -46 L563 -46 L563 -122 L734 -122 Z" /><glyph glyph-name="cid1101" unicode="&#x53d8;" d="M741 174 Q747 178 745 185.5 Q743 193 735 193 L115 193 Q98 193 86.5 204.5 Q75 216 75 233 Q75 250 86.5 261.5 Q98 273 115 273 L885 273 Q912 273 925.5 261 Q939 249 942 233 Q945 217 938.5 201 Q932 185 918 177 L618 2 L784 -81 Q803 -90 822 -93.5 Q841 -97 862 -97 L938 -97 Q958 -97 968 -109.5 Q978 -122 978 -136.5 Q978 -151 968 -163.5 Q958 -176 938 -176 L846 -176 Q813 -176 783.5 -170.5 Q754 -165 725 -151 L526 -51 L423 -111 Q381 -135 330 -157 Q279 -179 227 -183.5 Q175 -188 126 -167.5 Q77 -147 40 -86 Q33 -75 38 -63.5 Q43 -52 66 -52 L284 -52 Q316 -52 349 -39 Q382 -26 414 -9 L427 -1 L339 43 Q319 53 294 57 Q269 61 246 61 L148 61 Q131 61 120 72.5 Q109 84 109 101 Q109 118 120 129.5 Q131 141 148 141 L271 141 Q305 141 335 135 Q365 129 395 114 L521 51 L741 174 ZM455 750 Q455 769 468 782 Q481 795 500 795 Q519 795 532 782 Q545 769 545 750 L545 702 L942 702 Q959 702 970.5 690.5 Q982 679 982 662 Q982 645 970.5 633.5 Q959 622 942 622 L659 622 L659 359 Q659 340 646 327 Q633 314 614 314 Q595 314 582 327 Q569 340 569 359 L569 622 L431 622 L431 359 Q431 340 418 327 Q405 314 386 314 Q367 314 354 327 Q341 340 341 359 L341 622 L58 622 Q41 622 29.5 633.5 Q18 645 18 662 Q18 679 29.5 690.5 Q41 702 58 702 L455 702 L455 750 ZM847 322 Q808 322 783.5 339 Q759 356 748 381.5 Q737 407 738.5 438.5 Q740 470 753 499 Q766 528 789.5 551 Q813 574 845 584 Q855 587 863 579.5 Q871 572 871 561 L871 431 Q871 417 880 409.5 Q889 402 903 402 L939 402 Q962 402 972.5 389.5 Q983 377 982 362 Q981 347 970 334.5 Q959 322 939 322 L847 322 ZM58 327 Q41 327 29.5 338.5 Q18 350 18 367 Q18 384 29.5 395.5 Q41 407 58 407 L93 407 Q131 407 144.5 428.5 Q158 450 158 492 L158 540 Q158 559 171 572 Q184 585 203 585 Q222 585 235 572 Q248 559 248 540 L248 467 Q248 403 216 365 Q184 327 136 327 L58 327 Z" /><glyph glyph-name="cid1262" unicode="&#x6210;" d="M767 -43 Q767 -72 775 -80 Q783 -88 802 -88 L812 -88 Q831 -88 838.5 -78 Q846 -68 846 -49 L846 70 Q846 83 854.5 90 Q863 97 874 94 Q917 81 943 55 Q969 29 980.5 -2 Q992 -33 990 -65.5 Q988 -98 974.5 -124.5 Q961 -151 936 -168 Q911 -185 878 -185 L787 -185 Q757 -185 736 -176.5 Q715 -168 702 -153 Q689 -138 683 -118 Q677 -98 677 -75 L677 151 L597 117 Q582 111 567 117.5 Q552 124 546 140 Q540 155 546.5 170.5 Q553 186 569 191 L677 237 L677 583 L284 583 Q263 583 248.5 568 Q234 553 234 533 L234 402 L427 402 Q469 402 496 378.5 Q523 355 523 313 L523 -50 Q523 -74 513.5 -97.5 Q504 -121 487 -139.5 Q470 -158 447.5 -169 Q425 -180 400 -180 Q392 -180 386 -174 Q380 -168 380 -160 L380 265 Q380 299 362.5 310.5 Q345 322 315 322 L234 322 L234 -70 Q233 -119 211 -152 Q189 -185 156 -191 Q123 -197 83.5 -169 Q44 -141 7 -69 Q0 -54 5.5 -41 Q11 -28 25 -28 L74 -28 Q87 -28 95.5 -19 Q104 -10 104 2 L104 563 Q104 605 133 634 Q162 663 204 663 L677 663 L677 747 Q677 769 691 780.5 Q705 792 722 792 Q739 792 753 780.5 Q767 769 767 747 L767 663 L813 663 Q827 663 837 672 Q847 681 847 698 L847 750 Q847 764 855 768.5 Q863 773 876 769 Q937 751 964 720 Q991 689 989 658.5 Q987 628 958.5 605.5 Q930 583 882 583 L767 583 L767 275 L932 346 Q947 352 962 345.5 Q977 339 983 323 Q989 308 982.5 293 Q976 278 960 272 L767 189 L767 -43 Z" /><glyph glyph-name="cid1265" unicode="&#x7a0b;" d="M240 407 L240 287 L314 287 Q343 287 361 272 Q379 257 387 233.5 Q395 210 393.5 182 Q392 154 381 128.5 Q370 103 351 83.5 Q332 64 306 58 Q298 56 291.5 63 Q285 70 285 80 L285 196 Q285 209 277.5 218 Q270 227 259 227 L240 227 L240 -148 Q240 -166 227 -179 Q214 -192 196 -192 Q177 -192 164 -179 Q151 -166 151 -148 L151 407 L42 407 Q25 407 13.5 418.5 Q2 430 2 447 Q2 464 13.5 475.5 Q25 487 42 487 L151 487 L151 613 L53 613 Q31 613 20.5 625.5 Q10 638 10.5 653.5 Q11 669 21.5 681.5 Q32 694 53 694 L216 694 Q230 694 239 703 Q248 712 248 726 L248 774 Q248 785 256 791.5 Q264 798 275 797 Q311 795 336.5 780.5 Q362 766 376 745.5 Q390 725 392.5 701.5 Q395 678 386 658.5 Q377 639 356.5 626 Q336 613 304 613 L240 613 L240 487 L354 487 Q371 487 382.5 475.5 Q394 464 394 447 Q394 430 382.5 418.5 Q371 407 354 407 L240 407 ZM672 424 Q658 424 648 434 Q638 444 638 458 Q638 472 648 482 Q658 492 672 492 L802 492 Q824 492 839 505.5 Q854 519 861.5 539 Q869 559 869.5 583 Q870 607 862.5 627 Q855 647 840 660.5 Q825 674 802 674 L625 674 Q612 674 603.5 665 Q595 656 595 644 L595 452 Q595 440 586 431.5 Q577 423 565 422 Q520 421 489 446.5 Q458 472 442 511 Q426 550 426 596 Q426 642 442.5 681 Q459 720 493 746.5 Q527 773 580 773 L824 773 Q867 773 897.5 747 Q928 721 944.5 682.5 Q961 644 963 598.5 Q965 553 951 514.5 Q937 476 906.5 450 Q876 424 829 424 L672 424 ZM769 64 L769 49 Q769 28 764 7 Q759 -14 747.5 -32 Q736 -50 717 -62.5 Q698 -75 670 -78 Q656 -80 648 -72.5 Q640 -65 640 -53 L640 64 L479 64 Q462 64 450.5 75.5 Q439 87 439 104 Q439 121 450.5 132.5 Q462 144 479 144 L640 144 L640 227 Q640 244 628.5 255.5 Q617 267 600 267 L466 267 Q449 267 437.5 278 Q426 289 426 306 Q426 323 437.5 334.5 Q449 346 466 346 L926 346 Q943 346 954.5 334.5 Q966 323 966 306 Q966 289 954.5 278 Q943 267 926 267 L811 267 Q794 267 781.5 255.5 Q769 244 769 227 L769 144 L911 144 Q928 144 939.5 132.5 Q951 121 951 104 Q951 87 939.5 75.5 Q928 64 911 64 L769 64 ZM440 -183 Q423 -183 411.5 -171.5 Q400 -160 400 -143 Q400 -126 411.5 -114.5 Q423 -103 440 -103 L952 -103 Q969 -103 980 -114.5 Q991 -126 991 -143 Q991 -160 980 -171.5 Q969 -183 952 -183 L440 -183 ZM14 293 Q14 311 26.5 323.5 Q39 336 57 336 Q74 336 87 323.5 Q100 311 100 293 L100 -60 Q100 -78 87 -91 Q74 -104 57 -104 Q39 -104 26.5 -91 Q14 -78 14 -60 L14 293 Z" /><glyph glyph-name="cid1326" unicode="&#x4f20;" d="M651 591 L601 436 L952 436 Q969 436 980 424.5 Q991 413 991 396 Q991 379 980 367.5 Q969 356 952 356 L575 356 L544 259 Q537 238 545 229.5 Q553 221 568 221 L866 221 Q897 221 914.5 210.5 Q932 200 938.5 184 Q945 168 941.5 148 Q938 128 927 110 L814 -83 Q782 -137 742 -164 Q702 -191 660.5 -190.5 Q619 -190 579 -161 Q539 -132 508 -74 Q500 -59 505.5 -50.5 Q511 -42 525 -42 L673 -42 Q699 -42 714.5 -33 Q730 -24 744 -3 L819 112 Q826 123 823 132 Q820 141 806 141 L521 141 Q500 141 482.5 147 Q465 153 454.5 166 Q444 179 441.5 199.5 Q439 220 448 248 L482 356 L372 356 Q355 356 343.5 367.5 Q332 379 332 396 Q332 413 343.5 424.5 Q355 436 372 436 L508 436 L558 591 L404 591 Q387 591 375.5 602.5 Q364 614 364 631 Q364 648 375.5 659.5 Q387 671 404 671 L584 671 L612 758 Q619 779 635.5 786.5 Q652 794 668.5 790.5 Q685 787 695 773 Q705 759 698 738 L676 671 L919 671 Q936 671 947.5 659.5 Q959 648 959 631 Q959 614 947.5 602.5 Q936 591 919 591 L651 591 ZM192 363 Q173 321 145.5 306 Q118 291 90.5 300 Q63 309 39.5 341.5 Q16 374 4 428 Q2 437 5 444 Q8 451 17 451 L98 451 Q129 451 139 480 L226 761 Q231 778 247 787.5 Q263 797 281 792 Q299 787 308.5 771 Q318 755 313 737 L232 485 L237 485 Q256 485 269 472 Q282 459 282 440 L282 -148 Q282 -166 269 -179 Q256 -192 237 -192 Q218 -192 205 -179 Q192 -166 192 -148 L192 363 Z" /><glyph glyph-name="cid1361" unicode="&#x6b21;" d="M409 525 Q360 525 331 541 Q302 557 291 582 Q280 607 285 637.5 Q290 668 308 697 Q326 726 355.5 750 Q385 774 424 786 Q438 791 446 783.5 Q454 776 454 763 L454 640 Q454 623 463.5 614 Q473 605 487 605 L901 605 Q930 605 950.5 584.5 Q971 564 971 535 L971 388 Q971 369 958 356 Q945 343 926 343 Q907 343 894 356 Q881 369 881 388 L881 505 Q881 513 875 519 Q869 525 861 525 L409 525 ZM556 425 Q556 447 570 458 Q584 469 601 469 Q618 469 632 458 Q646 447 646 425 L646 239 Q646 217 644.5 200 Q643 183 639 168 Q635 153 628.5 139.5 Q622 126 613 111 L484 -91 Q450 -144 415.5 -166.5 Q381 -189 347.5 -184.5 Q314 -180 283 -148.5 Q252 -117 225 -62 Q217 -46 223 -37 Q229 -28 243 -28 L370 -28 Q399 -28 414 -20.5 Q429 -13 443 10 L532 152 Q543 169 549.5 191.5 Q556 214 556 245 L556 425 ZM878 -75 Q891 -94 900.5 -103 Q910 -112 930 -112 L957 -112 Q977 -112 987 -123.5 Q997 -135 997 -149.5 Q997 -164 986.5 -175.5 Q976 -187 957 -187 L913 -187 Q890 -187 874 -182.5 Q858 -178 846 -170 Q834 -162 824 -149.5 Q814 -137 803 -120 L678 67 Q664 88 668.5 105 Q673 122 686 131 Q699 140 716 139 Q733 138 744 122 L878 -75 ZM158 505 Q158 494 164 487 Q170 480 179 480 L217 480 Q231 480 240.5 468.5 Q250 457 250 440 Q250 423 240.5 411.5 Q231 400 217 400 L135 400 Q96 400 69.5 420 Q43 440 29 471.5 Q15 503 13.5 542 Q12 581 24.5 620 Q37 659 63 693 Q89 727 129 749 Q140 755 149 752 Q158 749 158 735 L158 505 ZM210 291 Q227 291 238.5 279.5 Q250 268 250 251 Q250 234 238.5 222.5 Q227 211 210 211 L156 211 Q136 211 127 201.5 Q118 192 118 159 L118 -137 Q118 -156 105 -169 Q92 -182 73 -182 Q54 -182 41 -169 Q28 -156 28 -137 L28 160 Q28 291 133 291 L210 291 Z" /><glyph glyph-name="cid1426" unicode="&#x5f53;" d="M463 741 Q463 759 476 772 Q489 785 508 785 Q527 785 540 772 Q553 759 553 741 L553 407 L787 407 Q832 407 865 382 Q898 357 919.5 316.5 Q941 276 951 224 Q961 172 960.5 117.5 Q960 63 948.5 11 Q937 -41 916 -81.5 Q895 -122 864.5 -147 Q834 -172 794 -172 L83 -172 Q68 -172 57 -161.5 Q46 -151 46 -135 Q46 -119 57 -108 Q68 -97 83 -97 L778 -97 Q808 -97 830 -67.5 Q852 -38 864.5 6.5 Q877 51 878.5 103 Q880 155 869.5 199.5 Q859 244 835 273.5 Q811 303 773 303 L101 303 Q78 303 65.5 319 Q53 335 52.5 354.5 Q52 374 63.5 390.5 Q75 407 101 407 L463 407 L463 741 ZM127 63 Q110 63 98.5 74.5 Q87 86 87 103 Q87 120 98.5 131 Q110 142 127 142 L765 142 Q782 142 793.5 131 Q805 120 805 103 Q805 86 793.5 74.5 Q782 63 765 63 L127 63 ZM209 481 Q172 491 147.5 512.5 Q123 534 111.5 560 Q100 586 100.5 615 Q101 644 114.5 670 Q128 696 152.5 717 Q177 738 214 749 Q225 753 236 749 Q247 745 247 734 L247 498 Q247 486 236.5 481 Q226 476 209 481 ZM803 718 Q808 736 823.5 745 Q839 754 856 749 Q873 744 882.5 728.5 Q892 713 887 696 L833 491 Q828 474 812.5 465 Q797 456 779 461 Q762 466 753 481.5 Q744 497 749 514 L803 718 Z" /><glyph glyph-name="cid1445" unicode="&#x7684;" d="M224 -183 Q206 -183 197 -171.5 Q188 -160 188 -146.5 Q188 -133 197 -121.5 Q206 -110 224 -110 L314 -110 Q327 -110 338 -82.5 Q349 -55 357 -10 Q365 35 369.5 92.5 Q374 150 375 210 L236 210 Q220 210 209 221 Q198 232 198 248 Q198 264 209 275 Q220 286 236 286 L375 286 Q373 337 369 383 Q365 429 357.5 464.5 Q350 500 339 520.5 Q328 541 314 541 L199 541 Q182 541 171.5 530.5 Q161 520 161 494 L161 -157 Q161 -169 155 -173.5 Q149 -178 140 -177 Q122 -174 105.5 -155 Q89 -136 75 -105 Q61 -74 50 -34 Q39 6 31 51 Q23 96 19 143.5 Q15 191 15 236 Q15 351 27 428.5 Q39 506 59 553 Q79 600 105 620.5 Q131 641 160 641 L199 641 L199 745 Q199 767 213 778 Q227 789 244 789 Q261 789 275 778 Q289 767 289 745 L289 641 L359 641 Q385 641 405 605.5 Q425 570 438.5 512 Q452 454 458.5 380 Q465 306 465.5 229 Q466 152 459.5 78 Q453 4 439.5 -54 Q426 -112 405.5 -147.5 Q385 -183 357 -183 L224 -183 ZM857 530 Q857 542 851.5 549.5 Q846 557 834 557 L578 557 Q540 557 517 573 Q494 589 485 613 Q476 637 480.5 666 Q485 695 502.5 721.5 Q520 748 550.5 768 Q581 788 624 794 Q633 795 639 789 Q645 783 645 775 L645 662 Q645 637 666 637 L913 637 Q927 637 939.5 631 Q952 625 961.5 614.5 Q971 604 976.5 591 Q982 578 982 565 L982 -56 Q982 -81 974.5 -104 Q967 -127 954 -146 Q941 -165 922.5 -177 Q904 -189 882 -192 Q873 -194 865 -188.5 Q857 -183 857 -172 L857 530 ZM681 92 Q641 107 616 133.5 Q591 160 580 191 Q569 222 571.5 255.5 Q574 289 588.5 318.5 Q603 348 629.5 369.5 Q656 391 693 400 Q706 403 714 398.5 Q722 394 722 373 L722 114 Q722 103 709.5 94 Q697 85 681 92 Z" /><glyph glyph-name="cid1592" unicode="&#x2f09;&#x513f;" d="M709 -33 Q709 -58 718 -73 Q727 -88 759 -88 L820 -88 Q839 -88 846.5 -78 Q854 -68 854 -48 L854 55 Q854 69 862.5 76 Q871 83 882 79 Q918 68 940.5 43.5 Q963 19 973.5 -10 Q984 -39 982.5 -70 Q981 -101 968.5 -126.5 Q956 -152 932.5 -168.5 Q909 -185 876 -185 L739 -185 Q709 -185 686.5 -175.5 Q664 -166 649 -149.5 Q634 -133 626.5 -111.5 Q619 -90 619 -65 L619 712 Q619 735 633 746 Q647 757 664 757 Q681 757 695 745.5 Q709 734 709 712 L709 -33 ZM310 -66 Q305 -113 286 -142 Q267 -171 240.5 -183.5 Q214 -196 182.5 -192.5 Q151 -189 121 -172 Q91 -155 65 -125.5 Q39 -96 24 -56 Q19 -42 23 -30 Q27 -18 47 -18 L162 -18 Q187 -18 201.5 -9 Q216 0 223 14.5 Q230 29 232.5 47.5 Q235 66 237 85 L293 714 Q296 741 311 751.5 Q326 762 343 760 Q360 758 373 744.5 Q386 731 384 710 L310 -66 Z" /><glyph glyph-name="cid1599" unicode="&#x53d1;" d="M584 -108 Q539 -158 500 -179 Q461 -200 426 -193.5 Q391 -187 359.5 -154 Q328 -121 297 -63 Q290 -49 299 -36.5 Q308 -24 323 -24 L479 -24 Q507 -24 525 -15 Q543 -6 560 12 L593 47 L479 165 Q473 172 465.5 177.5 Q458 183 448 183 L390 183 Q375 183 366 195 Q357 207 356.5 222 Q356 237 366.5 249 Q377 261 403 261 L474 261 Q487 261 499.5 253.5 Q512 246 519 238 L652 108 L801 263 Q832 295 820.5 309.5 Q809 324 767 324 L341 324 L256 -46 Q238 -124 206.5 -159.5 Q175 -195 139 -191.5 Q103 -188 68.5 -148 Q34 -108 10 -36 Q5 -22 13 -9.5 Q21 3 36 3 L113 3 Q142 3 157 15.5 Q172 28 177 51 L281 509 L148 509 Q86 509 55.5 537.5 Q25 566 26 605.5 Q27 645 58.5 686.5 Q90 728 153 755 Q172 763 185.5 756 Q199 749 199 733 L199 633 Q199 615 212 602 Q225 589 243 589 L300 589 L336 747 Q342 774 360.5 784 Q379 794 397.5 790 Q416 786 428.5 772 Q441 758 436 737 L402 589 L943 589 Q960 589 971.5 577.5 Q983 566 983 549 Q983 532 971.5 520.5 Q960 509 943 509 L383 509 L359 404 L851 404 Q887 404 909.5 390 Q932 376 940 354.5 Q948 333 942 307.5 Q936 282 915 259 L719 42 L841 -77 Q867 -103 899 -103 L937 -103 Q954 -103 965.5 -114.5 Q977 -126 977 -143 Q977 -160 965.5 -171 Q954 -182 937 -182 L857 -182 Q814 -182 782 -148 L661 -23 L584 -108 ZM721 626 Q673 626 655.5 649 Q638 672 644 701.5 Q650 731 675.5 757.5 Q701 784 739 792 Q750 794 757.5 786.5 Q765 779 765 768 L765 721 Q765 707 773.5 702.5 Q782 698 796 698 L863 698 Q884 698 895.5 686.5 Q907 675 907.5 661.5 Q908 648 897 637 Q886 626 863 626 L721 626 Z" /><glyph glyph-name="cid1727" unicode="&#x6539;" d="M147 -161 Q102 -161 71.5 -123.5 Q41 -86 26 -29.5 Q11 27 11 92.5 Q11 158 27 214.5 Q43 271 74 308.5 Q105 346 153 346 L283 346 Q302 346 314.5 367.5 Q327 389 332.5 420.5 Q338 452 337 488.5 Q336 525 329.5 556.5 Q323 588 311 609 Q299 630 283 630 L85 630 Q64 630 54 642.5 Q44 655 44.5 670 Q45 685 55 697.5 Q65 710 85 710 L305 710 Q353 710 383 675.5 Q413 641 426.5 589.5 Q440 538 438 478 Q436 418 420.5 366.5 Q405 315 376.5 280.5 Q348 246 310 246 L202 246 Q190 246 178.5 237.5 Q167 229 167 216 L167 -27 Q167 -44 176.5 -62.5 Q186 -81 209 -81 L377 -81 Q394 -81 405.5 -92.5 Q417 -104 417 -121 Q417 -138 405.5 -149.5 Q394 -161 377 -161 L147 -161 ZM534 368 Q516 368 503 381 Q490 394 490 413 Q490 432 503 445 Q516 458 534 458 L580 458 Q618 458 638 446 Q658 434 675 405 L766 240 L878 456 Q888 475 906.5 480.5 Q925 486 941 480 Q957 474 965 459.5 Q973 445 963 426 L819 146 L971 -126 Q981 -145 974 -160.5 Q967 -176 952 -182.5 Q937 -189 919 -185 Q901 -181 890 -162 L770 50 L704 -79 Q668 -149 632 -172.5 Q596 -196 564 -188 Q532 -180 507.5 -148.5 Q483 -117 470 -76 Q465 -59 467 -50.5 Q469 -42 483 -42 L578 -42 Q605 -42 616.5 -34.5 Q628 -27 640 -4 L717 144 L602 348 Q595 360 585.5 364 Q576 368 560 368 L534 368 ZM583 531 Q547 531 524 547 Q501 563 489.5 588 Q478 613 479.5 643.5 Q481 674 495.5 703 Q510 732 537 756 Q564 780 605 792 Q616 795 624 791.5 Q632 788 632 778 L632 637 Q632 623 640 613.5 Q648 604 662 604 L952 604 Q973 604 984.5 592.5 Q996 581 996.5 567.5 Q997 554 986 542.5 Q975 531 952 531 L583 531 Z" /><glyph glyph-name="cid1844" unicode="&#x89c2;" d="M248 94 L202 -76 Q187 -133 161 -157 Q135 -181 107 -176 Q79 -171 52.5 -138.5 Q26 -106 10 -50 Q5 -34 11 -24.5 Q17 -15 33 -15 L99 -15 Q113 -15 125 -7 Q137 1 142 22 L194 221 L113 413 Q108 424 99.5 431.5 Q91 439 67 439 L52 439 Q35 439 26.5 451.5 Q18 464 19 479 Q20 494 29 506.5 Q38 519 55 519 L94 519 Q134 519 153.5 504 Q173 489 185 461 L230 355 L287 572 Q292 592 287 603 Q282 614 258 614 L68 614 Q48 614 38 626.5 Q28 639 28 654 Q28 669 38 681.5 Q48 694 68 694 L310 694 Q334 694 350.5 685.5 Q367 677 376 662.5 Q385 648 387 629.5 Q389 611 383 591 L284 228 L387 -13 Q400 -45 393.5 -63.5 Q387 -82 372.5 -88.5 Q358 -95 340.5 -89.5 Q323 -84 316 -66 L248 94 ZM638 681 Q618 681 609.5 671 Q601 661 601 635 L601 200 Q601 189 594 180.5 Q587 172 576 174 Q536 179 507.5 206.5 Q479 234 461 276 Q443 318 435.5 370.5 Q428 423 430 476.5 Q432 530 443.5 581 Q455 632 475 672 Q495 712 524 736 Q553 760 590 760 L888 760 Q917 760 937.5 739.5 Q958 719 958 690 L958 233 Q958 211 944 200 Q930 189 912.5 189 Q895 189 881 200 Q867 211 867 233 L867 650 Q867 662 858 671.5 Q849 681 837 681 L638 681 ZM694 559 Q694 581 708 592 Q722 603 739 603 Q756 603 770 592 Q784 581 784 559 L784 290 Q784 272 782.5 258 Q781 244 778 231.5 Q775 219 770.5 206.5 Q766 194 760 179 L665 -66 Q641 -129 609 -160 Q577 -191 544 -191 Q511 -191 479.5 -161 Q448 -131 426 -73 Q420 -56 426 -47.5 Q432 -39 444 -39 L534 -39 Q561 -39 574.5 -31.5 Q588 -24 597 -1 L677 209 Q686 233 690 251.5 Q694 270 694 298 L694 559 ZM853 -184 Q817 -184 793.5 -165 Q770 -146 757.5 -116 Q745 -86 744 -48.5 Q743 -11 752.5 26.5 Q762 64 780.5 97 Q799 130 827 151 Q832 155 839 157 Q846 159 852 157.5 Q858 156 862.5 150.5 Q867 145 867 134 L867 -68 Q867 -95 881 -101.5 Q895 -108 908 -108 L951 -108 Q973 -108 984 -120 Q995 -132 995.5 -146 Q996 -160 985 -172 Q974 -184 951 -184 L853 -184 Z" /><glyph glyph-name="cid1914" unicode="&#x597d;" d="M83 549 L47 549 Q25 549 14.5 561.5 Q4 574 4 588.5 Q4 603 15 615.5 Q26 628 47 628 L83 628 L83 722 Q83 757 100.5 774.5 Q118 792 138.5 792 Q159 792 175.5 774.5 Q192 757 192 722 L192 628 L302 628 Q334 628 356.5 608 Q379 588 379 559 L379 267 Q379 238 377.5 213.5 Q376 189 363 163 L311 65 L426 -70 Q447 -96 443 -118.5 Q439 -141 422 -153 Q405 -165 382 -162.5 Q359 -160 342 -136 L258 -36 L225 -99 Q203 -142 177.5 -166.5 Q152 -191 124 -191.5 Q96 -192 66.5 -165.5 Q37 -139 9 -80 Q1 -64 5.5 -53 Q10 -42 27 -42 L102 -42 Q119 -42 129.5 -39.5 Q140 -37 147.5 -31.5 Q155 -26 160.5 -17 Q166 -8 173 5 L192 41 L121 126 Q107 143 99.5 157 Q92 171 88.5 186.5 Q85 202 84 221.5 Q83 241 83 269 L83 549 ZM633 277 L456 277 Q439 277 427.5 288.5 Q416 300 416 317 Q416 334 427.5 345.5 Q439 357 456 357 L633 357 Q633 378 637 399.5 Q641 421 655 438 L808 632 Q816 641 813 649.5 Q810 658 799 658 L470 658 Q450 658 440 670.5 Q430 683 430 698.5 Q430 714 440 726.5 Q450 739 470 739 L887 739 Q921 739 940.5 724.5 Q960 710 967 689 Q974 668 969 644.5 Q964 621 949 602 L800 415 Q788 400 783 387.5 Q778 375 776 357 L957 357 Q974 357 985 345.5 Q996 334 996 317 Q996 300 985 288.5 Q974 277 957 277 L775 277 L775 -42 Q775 -86 753 -120 Q731 -154 704 -172.5 Q677 -191 655 -191 Q633 -191 633 -165 L633 277 ZM192 549 L192 277 Q192 238 197 216.5 Q202 195 217 176 L246 142 L275 197 Q283 211 284 225.5 Q285 240 285 255 L285 519 Q285 531 275.5 540 Q266 549 252 549 L192 549 Z" /><glyph glyph-name="cid1925" unicode="&#x4f55;" d="M350 637 Q333 637 322 648.5 Q311 660 311 677 Q311 694 322 705.5 Q333 717 350 717 L955 717 Q972 717 983.5 705.5 Q995 694 995 677 Q995 660 983.5 648.5 Q972 637 955 637 L943 637 Q926 637 914.5 625.5 Q903 614 903 597 L903 -57 Q903 -81 894.5 -105 Q886 -129 871 -147.5 Q856 -166 836 -178 Q816 -190 792 -190 Q784 -190 778.5 -185 Q773 -180 773 -172 L773 597 Q773 614 761.5 625.5 Q750 637 733 637 L350 637 ZM491 -1 Q476 -1 468.5 9.5 Q461 20 461 33 Q461 46 468.5 56.5 Q476 67 491 67 L573 67 Q588 67 597 92.5 Q606 118 610 155.5 Q614 193 613 237.5 Q612 282 606 319.5 Q600 357 589 382.5 Q578 408 563 408 L472 408 Q461 408 453 399 Q445 390 445 378 L445 27 Q445 14 436.5 4 Q428 -6 417 -3 Q378 7 353 48 Q328 89 316.5 144.5 Q305 200 306.5 262.5 Q308 325 322.5 377 Q337 429 364.5 463.5 Q392 498 431 498 L587 498 Q621 498 646 461 Q671 424 685 368.5 Q699 313 701.5 248.5 Q704 184 693 128.5 Q682 73 657.5 36 Q633 -1 594 -1 L491 -1 ZM148 322 Q129 300 108 297 Q87 294 67 308 Q47 322 29.5 352.5 Q12 383 2 428 Q0 437 3 444 Q6 451 15 451 L76 451 Q107 451 117 480 L206 761 Q211 778 227 787.5 Q243 797 261 792 Q279 787 288.5 771 Q298 755 293 737 L205 461 Q219 456 228.5 444.5 Q238 433 238 418 L238 -148 Q238 -166 225 -179 Q212 -192 193 -192 Q174 -192 161 -179 Q148 -166 148 -148 L148 322 Z" /><glyph glyph-name="cid1988" unicode="&#x5316;" d="M657 331 L657 -39 Q657 -64 665.5 -74 Q674 -84 699 -84 L786 -84 Q803 -84 816 -75.5 Q829 -67 829 -40 L829 49 Q829 62 838.5 71 Q848 80 860 78 Q897 71 923 49 Q949 27 962.5 -1.5 Q976 -30 977.5 -62 Q979 -94 968 -120.5 Q957 -147 933.5 -164 Q910 -181 874 -181 L685 -181 Q656 -181 634 -171.5 Q612 -162 597.5 -145.5 Q583 -129 576 -107.5 Q569 -86 569 -61 L569 331 L417 331 Q400 331 388.5 342.5 Q377 354 377 371 Q377 388 388.5 399.5 Q400 411 417 411 L569 411 L569 749 Q569 771 582.5 782 Q596 793 612.5 793 Q629 793 643 782 Q657 771 657 749 L657 411 L802 411 Q840 411 851 425.5 Q862 440 862 470 L862 518 Q862 537 875 550 Q888 563 907 563 Q926 563 939 550 Q952 537 952 518 L952 442 Q952 421 946 401.5 Q940 382 927 366 Q914 350 893 340.5 Q872 331 842 331 L657 331 ZM213 363 Q191 321 160.5 306.5 Q130 292 99 301.5 Q68 311 41.5 343.5 Q15 376 2 430 Q0 440 3.5 447 Q7 454 17 454 L108 454 Q124 454 136.5 461.5 Q149 469 154 483 L251 766 Q256 783 274.5 792.5 Q293 802 313 797 Q333 792 343.5 776 Q354 760 349 742 L259 488 L264 488 Q285 488 299.5 475 Q314 462 314 443 L314 -150 Q314 -168 299.5 -181.5 Q285 -195 264 -195 Q243 -195 228 -181.5 Q213 -168 213 -150 L213 363 Z" /><glyph glyph-name="cid2038" unicode="&#x4f1a;" d="M319 763 Q331 784 349 789 Q367 794 380.5 787.5 Q394 781 399.5 765 Q405 749 393 729 L368 687 L876 687 Q916 687 940.5 667.5 Q965 648 975.5 617.5 Q986 587 984 550 Q982 513 968.5 478 Q955 443 931 414 Q907 385 875 371 Q860 364 849.5 372.5 Q839 381 839 395 L839 567 Q839 584 827.5 595.5 Q816 607 799 607 L322 607 L240 467 Q206 408 171 390.5 Q136 373 105.5 382.5 Q75 392 51 422.5 Q27 453 15 491 Q10 506 15 518 Q20 530 43 530 L125 530 Q159 530 176 537.5 Q193 545 205 567 L319 763 ZM826 42 Q827 61 840 71 Q853 81 868.5 81.5 Q884 82 897 72.5 Q910 63 911 42 L911 -40 Q911 -118 879 -150.5 Q847 -183 768 -183 L247 -183 Q206 -183 178.5 -164 Q151 -145 136.5 -116 Q122 -87 121 -50.5 Q120 -14 131.5 20 Q143 54 167.5 83 Q192 112 228 127 Q247 135 260 128 Q273 121 273 106 L273 -59 Q273 -77 286 -90 Q299 -103 317 -103 L758 -103 Q793 -103 809.5 -91.5 Q826 -80 826 -40 L826 42 ZM83 159 Q66 159 54.5 170.5 Q43 182 43 199 Q43 216 54.5 227.5 Q66 239 83 239 L927 239 Q944 239 955.5 227.5 Q967 216 967 199 Q967 182 955.5 170.5 Q944 159 927 159 L83 159 ZM287 369 Q270 369 259 380.5 Q248 392 248 409 Q248 426 259 437.5 Q270 449 287 449 L761 449 Q778 449 789.5 437.5 Q801 426 801 409 Q801 392 789.5 380.5 Q778 369 761 369 L287 369 Z" /><glyph glyph-name="cid2117" unicode="&#x5bb6;" d="M229 453 Q212 453 200.5 464.5 Q189 476 189 493 Q189 510 200.5 521.5 Q212 533 229 533 L819 533 Q836 533 847.5 521.5 Q859 510 859 493 Q859 476 847.5 464.5 Q836 453 819 453 L548 453 L423 372 L510 372 Q538 372 556.5 363.5 Q575 355 587 340.5 Q599 326 604 307.5 Q609 289 610 270 L686 270 Q711 270 733.5 256.5 Q756 243 765 219 L773 194 L804 194 Q854 194 871 212 Q888 230 888 268 L888 305 Q888 327 902 338 Q916 349 932.5 349 Q949 349 963 338 Q977 327 977 305 L977 243 Q977 225 971 202.5 Q965 180 950.5 160.5 Q936 141 911 127.5 Q886 114 847 114 L799 114 L827 31 Q835 8 849 -3 Q863 -14 887 -14 L974 -14 Q985 -14 991.5 -23 Q998 -32 994 -41 Q975 -96 943.5 -129 Q912 -162 877.5 -168.5 Q843 -175 811 -152 Q779 -129 759 -70 L687 149 Q680 168 665.5 179 Q651 190 627 190 L610 190 L610 -72 Q610 -98 600.5 -120 Q591 -142 574 -158 Q557 -174 534.5 -183.5 Q512 -193 487 -193 Q479 -193 473 -187 Q467 -181 467 -173 L467 232 Q467 257 452.5 274.5 Q438 292 407 292 L299 292 L242 255 Q203 231 160 231 L73 231 Q53 231 43 243.5 Q33 256 33 271 Q33 286 43 298.5 Q53 311 73 311 L143 311 Q174 311 197 327 L393 453 L229 453 ZM464 746 Q464 765 477 778 Q490 791 509 791 Q528 791 541 778 Q554 765 554 746 L554 708 L882 708 Q909 708 925.5 699.5 Q942 691 951.5 678 Q961 665 964 649.5 Q967 634 967 620 L967 503 Q967 481 955 470 Q943 459 929 459 Q915 459 903 470 Q891 481 891 503 L891 580 Q891 601 882 615 Q873 629 841 629 L198 629 Q181 629 169.5 617.5 Q158 606 158 589 L158 481 Q158 467 148 460.5 Q138 454 125 456 Q88 463 63.5 484 Q39 505 27.5 533 Q16 561 17 592 Q18 623 31 648.5 Q44 674 69.5 691 Q95 708 132 708 L464 708 L464 746 ZM311 -124 Q282 -139 252.5 -144.5 Q223 -150 191 -150 L73 -150 Q53 -150 43 -137.5 Q33 -125 33 -110 Q33 -95 43 -82.5 Q53 -70 73 -70 L174 -70 Q195 -70 214 -66.5 Q233 -63 252 -54 L382 7 Q401 16 417 9 Q433 2 440 -12.5 Q447 -27 441 -44.5 Q435 -62 410 -75 L311 -124 ZM311 69 Q282 54 252.5 49 Q223 44 191 44 L73 44 Q53 44 43 56.5 Q33 69 33 84 Q33 99 43 111.5 Q53 124 73 124 L174 124 Q195 124 214 127 Q233 130 252 140 L371 196 Q390 205 406.5 198.5 Q423 192 429.5 177.5 Q436 163 430.5 145 Q425 127 400 114 L311 69 Z" /><glyph glyph-name="cid2232" unicode="&#x754c;" d="M286 528 Q266 528 256 540.5 Q246 553 246 568 Q246 583 256 595.5 Q266 608 286 608 L483 608 L483 676 L243 676 Q230 676 221.5 667.5 Q213 659 213 646 L213 422 Q213 409 204 400 Q195 391 183 392 Q134 394 100.5 423 Q67 452 50.5 494.5 Q34 537 34.5 586.5 Q35 636 53 678 Q71 720 107 748 Q143 776 198 776 L789 776 Q842 776 876.5 747.5 Q911 719 928 677 Q945 635 944.5 585 Q944 535 926.5 493 Q909 451 875.5 422.5 Q842 394 793 394 L444 394 L391 323 L875 323 Q915 323 939 308 Q963 293 973.5 269.5 Q984 246 981 217 Q978 188 964 160.5 Q950 133 925.5 110 Q901 87 869 76 Q853 71 843.5 79 Q834 87 834 100 L834 203 Q834 220 822.5 231.5 Q811 243 794 243 L331 243 L298 198 Q252 140 207.5 117.5 Q163 95 125 101.5 Q87 108 57 139 Q27 170 9 218 Q4 232 10.5 244 Q17 256 40 256 L167 256 Q201 256 224.5 267 Q248 278 264 298 L336 394 L286 394 Q269 394 260.5 404.5 Q252 415 252 428 Q252 441 260.5 451.5 Q269 462 286 462 L483 462 L483 528 L286 528 ZM327 -79 Q314 -144 285 -169.5 Q256 -195 221.5 -191 Q187 -187 151.5 -157 Q116 -127 91 -79 Q88 -73 87.5 -64.5 Q87 -56 89.5 -49 Q92 -42 98 -37 Q104 -32 115 -32 L190 -32 Q243 -32 250 12 L273 122 Q277 149 293.5 158.5 Q310 168 327 165 Q344 162 356.5 148.5 Q369 135 365 115 L327 -79 ZM767 462 Q791 462 809 478 Q827 494 837 517.5 Q847 541 849 569 Q851 597 843.5 620.5 Q836 644 818.5 660 Q801 676 773 676 L573 676 L573 608 L770 608 Q787 608 798 596.5 Q809 585 809 568 Q809 551 798 539.5 Q787 528 770 528 L573 528 L573 462 L767 462 ZM676 135 Q676 154 689.5 167 Q703 180 721 180 Q740 180 753 167 Q766 154 766 135 L766 -148 Q766 -167 753 -180 Q740 -193 721 -193 Q703 -193 689.5 -180 Q676 -167 676 -148 L676 135 Z" /><glyph glyph-name="cid2282" unicode="&#x51c0;" d="M776 489 L776 567 Q776 575 770 581 Q764 587 756 587 L393 587 Q354 587 329.5 601 Q305 615 294.5 636 Q284 657 287 682.5 Q290 708 307 731 Q324 754 354 771.5 Q384 789 427 794 Q457 797 457 771 L457 712 Q457 697 463 682 Q469 667 496 667 L796 667 Q825 667 845.5 646.5 Q866 626 866 597 L866 477 Q901 457 920.5 411 Q940 365 944 310 L957 310 Q974 310 985.5 298.5 Q997 287 997 270 Q997 253 985.5 241.5 Q974 230 957 230 L942 230 Q938 197 928.5 168 Q919 139 904.5 117 Q890 95 870 82 Q850 69 826 69 L665 69 L665 -73 Q665 -97 656 -119.5 Q647 -142 632 -159 Q617 -176 596 -186.5 Q575 -197 551 -197 Q543 -197 537.5 -191.5 Q532 -186 532 -178 L532 69 L346 69 Q328 69 318.5 80 Q309 91 309 104 Q309 117 318.5 128 Q328 139 346 139 L532 139 L532 230 L315 230 Q298 230 286.5 241.5 Q275 253 275 270 Q275 287 286.5 298.5 Q298 310 315 310 L532 310 L532 358 Q532 375 523 386.5 Q514 398 497 398 L354 398 Q332 398 321 412 Q310 426 310 443.5 Q310 461 320.5 475 Q331 489 354 489 L776 489 ZM208 291 Q225 291 236.5 279.5 Q248 268 248 251 Q248 234 236.5 222.5 Q225 211 208 211 L154 211 Q134 211 125 201.5 Q116 192 116 159 L116 -137 Q116 -156 103 -169 Q90 -182 71 -182 Q52 -182 39 -169 Q26 -156 26 -137 L26 160 Q26 291 131 291 L208 291 ZM156 505 Q156 494 162 487 Q168 480 177 480 L215 480 Q229 480 238.5 468.5 Q248 457 248 440 Q248 423 238.5 411.5 Q229 400 215 400 L133 400 Q94 400 67.5 420 Q41 440 27 471.5 Q13 503 11.5 542 Q10 581 22.5 620 Q35 659 61 693 Q87 727 127 749 Q138 755 147 752 Q156 749 156 735 L156 505 ZM795 139 Q819 139 834.5 165.5 Q850 192 855 230 L665 230 L665 139 L795 139 ZM665 310 L856 310 Q851 346 834.5 372 Q818 398 790 398 L705 398 Q688 398 676.5 386.5 Q665 375 665 358 L665 310 Z" /><glyph glyph-name="cid2369" unicode="&#x770b;" d="M451 -189 Q437 -189 427 -179 Q417 -169 417 -155 Q417 -141 427 -131 Q437 -121 451 -121 L770 -121 Q801 -121 823.5 -99.5 Q846 -78 858.5 -46.5 Q871 -15 873 22.5 Q875 60 865.5 91.5 Q856 123 835 144.5 Q814 166 781 166 L399 166 Q387 166 378 157.5 Q369 149 369 136 L369 -161 Q369 -174 360.5 -183 Q352 -192 339 -191 Q294 -189 262.5 -162.5 Q231 -136 214 -95 Q197 -54 193 -4.5 Q189 45 199 93 Q151 66 102.5 95.5 Q54 125 9 215 Q1 230 5.5 244 Q10 258 30 258 L148 258 Q205 258 227 300 L249 342 L63 342 Q46 342 34.5 353.5 Q23 365 23 382 Q23 399 34.5 410.5 Q46 422 63 422 L292 422 L325 485 L108 485 Q91 485 79.5 496.5 Q68 508 68 525 Q68 542 79.5 553.5 Q91 565 108 565 L368 565 L405 634 L97 634 Q77 634 67.5 646.5 Q58 659 58 674 Q58 689 67.5 701.5 Q77 714 97 714 L761 714 Q789 714 796.5 723 Q804 732 804 752 L804 779 Q804 789 813 794.5 Q822 800 833 798 Q874 792 905.5 766 Q937 740 945 710.5 Q953 681 931 657.5 Q909 634 845 634 L513 634 L477 565 L897 565 Q914 565 925.5 553.5 Q937 542 937 525 Q937 508 925.5 496.5 Q914 485 897 485 L435 485 L402 422 L942 422 Q959 422 970 410.5 Q981 399 981 382 Q981 365 970 353.5 Q959 342 942 342 L361 342 L316 256 Q328 261 341.5 263.5 Q355 266 369 266 L798 266 Q853 266 889 232.5 Q925 199 942.5 148 Q960 97 959.5 38.5 Q959 -20 940.5 -71 Q922 -122 886 -155.5 Q850 -189 797 -189 L451 -189 ZM465 -82 Q445 -82 435 -69.5 Q425 -57 425 -42 Q425 -27 435 -14.5 Q445 -2 465 -2 L774 -2 Q791 -2 802.5 -13.5 Q814 -25 814 -42 Q814 -59 802.5 -70.5 Q791 -82 774 -82 L465 -82 ZM465 41 Q445 41 435 53.5 Q425 66 425 81 Q425 96 435 108.5 Q445 121 465 121 L774 121 Q791 121 802.5 109.5 Q814 98 814 81 Q814 64 802.5 52.5 Q791 41 774 41 L465 41 Z" /><glyph glyph-name="cid2490" unicode="&#x2f7c;&#x8001;" d="M43 385 Q26 385 14.5 396.5 Q3 408 3 425 Q3 442 14.5 453.5 Q26 465 43 465 L398 465 L398 611 L136 611 Q119 611 107.5 622.5 Q96 634 96 651 Q96 668 107.5 679.5 Q119 691 136 691 L398 691 L398 745 Q398 764 411 777 Q424 790 443 790 Q462 790 475 777 Q488 764 488 745 L488 691 L730 691 Q747 691 758.5 679.5 Q770 668 770 651 Q770 634 758.5 622.5 Q747 611 730 611 L488 611 L488 465 L579 465 L817 627 Q834 639 853 643.5 Q872 648 893 648 L949 648 Q968 648 978.5 635 Q989 622 989 607 Q989 592 979 579 Q969 566 949 566 L899 566 Q869 566 847 551 L724 465 L958 465 Q975 465 986 453.5 Q997 442 997 425 Q997 408 986 396.5 Q975 385 958 385 L610 385 L333 190 Q324 183 315.5 177.5 Q307 172 299 167 L299 -8 Q299 -29 304.5 -43 Q310 -57 319.5 -64.5 Q329 -72 341.5 -75 Q354 -78 368 -78 L727 -78 Q762 -78 779 -65.5 Q796 -53 796 -24 L796 90 Q796 103 806.5 108 Q817 113 828 109 Q863 96 887.5 70 Q912 44 924.5 12.5 Q937 -19 937.5 -52.5 Q938 -86 926 -113 Q914 -140 889.5 -157.5 Q865 -175 827 -175 L319 -175 Q288 -175 267 -166.5 Q246 -158 233 -143 Q220 -128 214.5 -108.5 Q209 -89 209 -66 L209 121 Q170 107 140.5 107.5 Q111 108 87 122 Q63 136 44 162.5 Q25 189 9 225 Q4 237 9 247 Q14 257 31 257 L218 257 Q239 257 263 261.5 Q287 266 304 278 L461 385 L43 385 ZM398 64 Q382 59 367.5 66.5 Q353 74 348 90 Q343 106 351 120.5 Q359 135 375 140 L828 257 Q844 262 858.5 254.5 Q873 247 878 231 Q883 215 875.5 200.5 Q868 186 851 181 L398 64 Z" /><glyph glyph-name="cid2533" unicode="&#x5386;" d="M550 -54 Q539 -138 508 -170.5 Q477 -203 440 -197 Q403 -191 368 -153 Q333 -115 314 -59 Q309 -45 315 -35.5 Q321 -26 336 -26 L388 -26 Q430 -26 444.5 -8.5 Q459 9 463 43 L505 386 L344 386 Q324 386 314 398.5 Q304 411 304 426 Q304 441 314 453.5 Q324 466 344 466 L515 466 L531 590 Q534 612 550.5 621 Q567 630 585 628 Q603 626 617 613 Q631 600 628 577 L614 466 L855 466 Q897 466 924 442.5 Q951 419 951 377 L951 -56 Q951 -80 941 -103.5 Q931 -127 914.5 -145.5 Q898 -164 875.5 -175 Q853 -186 828 -186 Q820 -185 814 -179.5 Q808 -174 808 -166 L808 329 Q808 363 790.5 374.5 Q773 386 743 386 L604 386 L550 -54 ZM248 -84 Q247 -133 222 -162 Q197 -191 161 -193.5 Q125 -196 85.5 -168.5 Q46 -141 16 -77 Q9 -63 14.5 -52.5 Q20 -42 34 -42 L88 -42 Q100 -42 109 -33 Q118 -24 118 -12 L118 642 Q118 684 147 713 Q176 742 218 742 L939 742 Q956 742 967.5 730.5 Q979 719 979 702 Q979 685 967.5 673.5 Q956 662 939 662 L298 662 Q277 662 262.5 647 Q248 632 248 612 L248 -84 Z" /><glyph glyph-name="cid2580" unicode="&#x4e86;" d="M276 -51 Q269 -37 276 -25 Q283 -13 297 -13 L380 -13 Q409 -13 418.5 2 Q428 17 428 40 L428 315 Q428 363 442.5 389 Q457 415 489 435 L735 614 Q744 620 746.5 626.5 Q749 633 745.5 638.5 Q742 644 734 647.5 Q726 651 715 651 L108 651 Q85 651 74 663.5 Q63 676 63 690.5 Q63 705 74 717.5 Q85 730 108 730 L853 730 Q884 730 904.5 716 Q925 702 933 682 Q941 662 935.5 640.5 Q930 619 908 605 L605 388 Q584 374 574 353 Q564 332 564 307 L564 -29 Q564 -85 548.5 -121.5 Q533 -158 508.5 -175.5 Q484 -193 452.5 -192.5 Q421 -192 389 -176 Q357 -160 327.5 -128.5 Q298 -97 276 -51 Z" /><glyph glyph-name="cid2610" unicode="&#x7075;" d="M783 738 Q837 738 873.5 709.5 Q910 681 928 638.5 Q946 596 947 546.5 Q948 497 931 454.5 Q914 412 879.5 383.5 Q845 355 793 355 L102 355 Q84 355 74.5 366 Q65 377 65 390 Q65 403 74.5 414 Q84 425 102 425 L772 425 Q801 425 820.5 441 Q840 457 850.5 481.5 Q861 506 861.5 534.5 Q862 563 851.5 587.5 Q841 612 820 628 Q799 644 767 644 L110 644 Q88 644 77 658.5 Q66 673 66 691 Q66 709 76.5 723.5 Q87 738 110 738 L783 738 ZM133 494 Q116 494 104.5 505.5 Q93 517 93 534 Q93 551 104.5 562.5 Q116 574 133 574 L759 574 Q776 574 787.5 562.5 Q799 551 799 534 Q799 517 787.5 505.5 Q776 494 759 494 L133 494 ZM343 -79 Q288 -136 242 -164.5 Q196 -193 156.5 -193 Q117 -193 83.5 -163 Q50 -133 20 -73 Q14 -61 19 -48 Q24 -35 44 -35 L215 -35 Q235 -35 249 -31 Q263 -27 273.5 -19.5 Q284 -12 292.5 -3 Q301 6 311 17 L437 148 Q448 159 450.5 174.5 Q453 190 453 207 L453 280 Q453 302 467 313 Q481 324 498 324 Q515 324 529 313 Q543 302 543 280 L543 195 Q543 168 539.5 144.5 Q536 121 516 101 L343 -79 ZM942 -101 Q961 -101 971.5 -113.5 Q982 -126 982.5 -140.5 Q983 -155 973 -167.5 Q963 -180 942 -180 L839 -180 Q779 -180 736 -140 L552 33 Q537 48 538 64 Q539 80 550 90.5 Q561 101 578.5 101.5 Q596 102 614 85 L782 -73 Q810 -101 851 -101 L942 -101 ZM195 61 Q131 72 100 103.5 Q69 135 70 172 Q71 209 104 244.5 Q137 280 200 299 Q211 303 221.5 299 Q232 295 232 284 L232 78 Q232 66 222 62 Q212 58 195 61 ZM830 265 Q839 282 856.5 287 Q874 292 891 284 Q908 275 913 257.5 Q918 240 910 223 L821 70 Q812 53 794.5 48 Q777 43 760 51 Q743 60 738 77.5 Q733 95 741 112 L830 265 Z" /><glyph glyph-name="cid2666" unicode="&#x65c5;" d="M187 564 L184 432 L348 432 Q377 432 397.5 414.5 Q418 397 418 369 L418 -49 Q418 -74 410 -97.5 Q402 -121 387.5 -140 Q373 -159 351.5 -172.5 Q330 -186 303 -190 Q294 -192 286 -186.5 Q278 -181 278 -170 L278 325 Q278 336 270 344.5 Q262 353 249 353 L182 353 L173 -79 Q172 -120 162 -144.5 Q152 -169 136.5 -179 Q121 -189 102.5 -186 Q84 -183 66 -169 Q48 -155 33 -132.5 Q18 -110 10 -80 Q5 -66 5.5 -56.5 Q6 -47 21 -47 L50 -47 Q61 -47 72 -41 Q83 -35 84 -9 L97 564 L46 564 Q29 564 17.5 575.5 Q6 587 6 604 Q6 621 17.5 632.5 Q29 644 46 644 L186 644 L186 746 Q186 768 200 779 Q214 790 231 790 Q248 790 262 779 Q276 768 276 746 L276 644 L416 644 Q433 644 444.5 632.5 Q456 621 456 604 Q456 587 444.5 575.5 Q433 564 416 564 L187 564 ZM658 376 Q646 376 637.5 367 Q629 358 629 346 L629 -174 Q629 -191 610 -192 Q591 -193 568 -179 Q545 -165 526 -136.5 Q507 -108 507 -66 L507 386 Q507 415 527.5 435.5 Q548 456 577 456 L815 456 Q829 456 838 465.5 Q847 475 847 489 L847 536 Q847 547 855 554 Q863 561 874 560 Q908 557 932.5 542.5 Q957 528 971 507.5 Q985 487 988.5 464 Q992 441 985 421.5 Q978 402 959.5 389 Q941 376 911 376 L658 376 ZM833 98 L858 -14 Q862 -31 873 -41.5 Q884 -52 910 -52 L975 -52 Q1006 -52 993 -86 Q973 -139 942.5 -166 Q912 -193 880 -193 Q848 -193 820 -164 Q792 -135 779 -74 L702 287 Q697 309 708 323 Q719 337 734.5 340.5 Q750 344 765.5 336.5 Q781 329 786 307 L814 180 L920 231 Q941 241 957 234.5 Q973 228 979.5 214.5 Q986 201 981 184 Q976 167 954 157 L833 98 ZM569 581 Q537 581 517 596 Q497 611 489 634.5 Q481 658 484.5 685 Q488 712 503 735.5 Q518 759 543.5 776 Q569 793 606 795 Q617 796 625 789.5 Q633 783 633 772 L633 695 Q633 681 642 671.5 Q651 662 665 662 L949 662 Q972 662 984 649.5 Q996 637 996.5 621.5 Q997 606 985 593.5 Q973 581 949 581 L569 581 Z" /><glyph glyph-name="cid2711" unicode="&#x5417;" d="M398 -6 Q378 -6 368 6.5 Q358 19 358 34 Q358 49 368 61.5 Q378 74 398 74 L729 74 Q749 74 759 61.5 Q769 49 769 34 Q769 19 759 6.5 Q749 -6 729 -6 L398 -6 ZM429 565 Q429 587 443 598 Q457 609 474 609 Q491 609 505 598 Q519 587 519 565 L519 339 Q519 326 528 317.5 Q537 309 549 309 L922 309 Q951 309 971 288.5 Q991 268 991 239 L991 -62 Q991 -88 980.5 -111.5 Q970 -135 952.5 -153 Q935 -171 912 -182 Q889 -193 864 -193 Q856 -193 850 -187 Q844 -181 844 -173 L844 199 Q844 212 835 220.5 Q826 229 814 229 L499 229 Q470 229 449.5 249.5 Q429 270 429 299 L429 565 ZM446 672 Q426 672 416.5 684 Q407 696 407 710 Q407 724 416.5 736 Q426 748 446 748 L863 748 Q892 748 912.5 727.5 Q933 707 933 678 L933 462 Q933 436 923 414 Q913 392 896.5 376 Q880 360 857.5 350.5 Q835 341 810 341 Q802 341 796 347 Q790 353 790 361 L790 643 Q790 655 781 663.5 Q772 672 760 672 L446 672 ZM190 -44 Q178 -44 172 -33 Q166 -22 166 -8.5 Q166 5 172 16.5 Q178 28 190 28 L216 28 Q225 28 231.5 51 Q238 74 242.5 112 Q247 150 249.5 198 Q252 246 252 296.5 Q252 347 249.5 395 Q247 443 242.5 481 Q238 519 231.5 542 Q225 565 216 565 L180 565 Q163 565 152.5 554.5 Q142 544 142 518 L142 -16 Q142 -28 136 -37.5 Q130 -47 122 -46 Q94 -42 73.5 -12.5 Q53 17 39.5 64.5 Q26 112 19 173 Q12 234 12 302 Q12 417 22 488 Q32 559 49.5 598.5 Q67 638 91.5 651.5 Q116 665 145 665 L250 665 Q271 665 287.5 634.5 Q304 604 315 554 Q326 504 332 440.5 Q338 377 338 310.5 Q338 244 333 180.5 Q328 117 316.5 67 Q305 17 288 -13.5 Q271 -44 248 -44 L190 -44 Z" /><glyph glyph-name="cid2745" unicode="&#x4e48;" d="M539 764 Q555 783 573 785.5 Q591 788 604 779 Q617 770 619.5 752.5 Q622 735 606 716 L262 293 Q222 244 185.5 219.5 Q149 195 116.5 198 Q84 201 58 231.5 Q32 262 13 323 Q8 337 14 349 Q20 361 43 361 L150 361 Q171 361 186.5 365.5 Q202 370 213 377 Q224 384 233 393.5 Q242 403 250 413 L539 764 ZM658 524 Q674 544 692 545 Q710 546 723 535.5 Q736 525 739.5 507 Q743 489 730 472 L316 -48 Q300 -67 305 -82.5 Q310 -98 338 -98 L713 -98 Q746 -98 758.5 -80 Q771 -62 771 -24 L771 106 Q771 122 781 128 Q791 134 802 129 Q846 112 874.5 82 Q903 52 916.5 18 Q930 -16 929 -51 Q928 -86 912 -114 Q896 -142 865 -160 Q834 -178 789 -178 L277 -178 Q246 -178 224 -166.5 Q202 -155 192 -135.5 Q182 -116 186 -91 Q190 -66 212 -38 L658 524 Z" /><glyph glyph-name="cid2757" unicode="&#x7f8e;" d="M63 250 Q46 250 34.5 261.5 Q23 273 23 290 Q23 307 34.5 318.5 Q46 330 63 330 L436 330 L436 418 L121 418 Q104 418 92.5 429.5 Q81 441 81 458 Q81 475 92.5 486.5 Q104 498 121 498 L436 498 L436 541 Q436 558 424.5 569.5 Q413 581 396 581 L88 581 Q71 581 59.5 592.5 Q48 604 48 621 Q48 638 59.5 649.5 Q71 661 88 661 L251 661 Q228 676 220.5 695.5 Q213 715 223 733.5 Q233 752 260 766.5 Q287 781 332 787 Q342 788 352 783 Q362 778 362 768 L362 661 L676 661 L701 757 Q708 778 725 784 Q742 790 758 784.5 Q774 779 783.5 764 Q793 749 786 728 L769 661 L913 661 Q930 661 941.5 649.5 Q953 638 953 621 Q953 604 941.5 592.5 Q930 581 913 581 L605 581 Q588 581 576.5 569.5 Q565 558 565 541 L565 498 L880 498 Q897 498 908.5 486.5 Q920 475 920 458 Q920 441 908.5 429.5 Q897 418 880 418 L565 418 L565 330 L938 330 Q955 330 966 318.5 Q977 307 977 290 Q977 273 966 261.5 Q955 250 938 250 L63 250 ZM453 189 Q453 211 467 222 Q481 233 498 233 Q515 233 529 222 Q543 211 543 189 L543 153 L930 153 Q947 153 958.5 141.5 Q970 130 970 113 Q970 96 958.5 84.5 Q947 73 930 73 L531 73 L347 -95 Q288 -149 243 -172 Q198 -195 161 -192 Q124 -189 92 -162.5 Q60 -136 29 -90 Q21 -78 26 -65 Q31 -52 48 -52 L183 -52 Q208 -52 226 -50 Q244 -48 258.5 -42.5 Q273 -37 286 -27.5 Q299 -18 316 -4 L404 73 L71 73 Q54 73 42.5 84.5 Q31 96 31 113 Q31 130 42.5 141.5 Q54 153 71 153 L453 153 L453 189 ZM540 -36 Q520 -21 519 -2.5 Q518 16 528.5 29.5 Q539 43 558 46.5 Q577 50 598 35 L751 -78 Q774 -95 799.5 -101 Q825 -107 854 -107 L927 -107 Q946 -107 956 -119.5 Q966 -132 966 -147 Q966 -162 956 -174.5 Q946 -187 927 -187 L833 -187 Q790 -187 754 -178 Q718 -169 684 -143 L540 -36 Z" /><glyph glyph-name="cid2764" unicode="&#x4eec;" d="M875 704 Q917 704 943.5 680.5 Q970 657 970 615 L970 -32 Q970 -70 959 -100.5 Q948 -131 930.5 -152.5 Q913 -174 891.5 -185.5 Q870 -197 848 -197 Q840 -197 834 -191 Q828 -185 828 -177 L828 562 Q828 600 808 612 Q788 624 758 624 L671 624 Q651 624 641 636.5 Q631 649 631 664 Q631 679 641 691.5 Q651 704 671 704 L875 704 ZM192 363 Q173 321 145.5 306 Q118 291 90.5 300 Q63 309 39.5 341.5 Q16 374 4 428 Q2 437 5 444 Q8 451 17 451 L98 451 Q129 451 139 480 L226 761 Q231 778 247 787.5 Q263 797 281 792 Q299 787 308.5 771 Q318 755 313 737 L232 485 L237 485 Q256 485 269 472 Q282 459 282 440 L282 -148 Q282 -166 269 -179 Q256 -192 237 -192 Q218 -192 205 -179 Q192 -166 192 -148 L192 363 ZM386 446 Q386 465 399.5 478 Q413 491 431 491 Q450 491 463 478 Q476 465 476 446 L476 -150 Q476 -168 463 -181.5 Q450 -195 431 -195 Q413 -195 399.5 -181.5 Q386 -168 386 -150 L386 446 ZM470 557 Q438 557 416.5 571.5 Q395 586 383.5 609 Q372 632 372 659.5 Q372 687 383.5 713.5 Q395 740 419 762 Q443 784 481 795 Q492 798 499.5 790.5 Q507 783 507 772 L507 669 Q507 655 516.5 646 Q526 637 540 637 L555 637 Q576 637 585.5 624.5 Q595 612 594 597 Q593 582 583 569.5 Q573 557 555 557 L470 557 Z" /><glyph glyph-name="cid2886" unicode="&#x4f60;" d="M192 363 Q173 321 145.5 306 Q118 291 90.5 300 Q63 309 39.5 341.5 Q16 374 4 428 Q2 437 5 444 Q8 451 17 451 L98 451 Q129 451 139 480 L226 761 Q231 778 247 787.5 Q263 797 281 792 Q299 787 308.5 771 Q318 755 313 737 L232 485 L237 485 Q256 485 269 472 Q282 459 282 440 L282 -148 Q282 -166 269 -179 Q256 -192 237 -192 Q218 -192 205 -179 Q192 -166 192 -148 L192 363 ZM735 2 Q735 -27 729 -56.5 Q723 -86 710.5 -112.5 Q698 -139 677.5 -159.5 Q657 -180 629 -191 Q618 -195 608.5 -187.5 Q599 -180 599 -167 L599 442 Q599 465 609 481 Q619 497 634 505 Q649 513 667 513.5 Q685 514 700 506 Q715 498 725 482 Q735 466 735 442 L735 2 ZM449 596 Q405 596 381 609 Q357 622 350.5 641.5 Q344 661 352 685 Q360 709 378.5 730.5 Q397 752 424.5 768.5 Q452 785 484 790 Q494 792 500.5 787 Q507 782 507 771 L507 716 Q507 709 508.5 702 Q510 695 514.5 689 Q519 683 527.5 679 Q536 675 550 675 L921 675 Q950 675 970.5 655 Q991 635 991 606 L991 485 Q991 463 977.5 452 Q964 441 948 441 Q932 441 918.5 452 Q905 463 905 485 L905 566 Q905 578 899 587 Q893 596 880 596 L449 596 ZM425 326 Q427 347 441.5 356 Q456 365 472.5 363.5 Q489 362 501.5 350 Q514 338 512 317 L471 -19 Q463 -89 438 -113 Q413 -137 385 -127.5 Q357 -118 333.5 -81 Q310 -44 305 9 Q304 15 308 19.5 Q312 24 317 24 L355 26 Q376 26 383 33.5 Q390 41 392 61 L425 326 ZM926 -121 Q888 -121 866 -94 Q844 -67 842 -25 L812 319 Q811 339 823.5 349.5 Q836 360 852 361 Q868 362 882 353 Q896 344 897 324 L925 5 Q926 -12 929 -21.5 Q932 -31 936.5 -35.5 Q941 -40 947.5 -40.5 Q954 -41 963 -41 Q981 -41 989.5 -54 Q998 -67 998 -82 Q998 -97 989 -109 Q980 -121 963 -121 L926 -121 Z" /><glyph glyph-name="cid2897" unicode="&#x5ff5;" d="M281 757 Q292 778 311 782.5 Q330 787 345 779.5 Q360 772 366.5 755 Q373 738 360 714 L348 692 L850 692 Q890 692 914.5 678 Q939 664 949.5 642 Q960 620 958 592.5 Q956 565 942.5 538.5 Q929 512 905 488 Q881 464 849 450 Q834 443 823.5 451.5 Q813 460 813 474 L813 572 Q813 589 801.5 600.5 Q790 612 774 612 L303 612 L271 553 Q236 488 199 465 Q162 442 128 449.5 Q94 457 64.5 489.5 Q35 522 14 568 Q7 582 11 597 Q15 612 38 612 L145 612 Q179 612 194 620 Q209 628 221 648 L281 757 ZM172 339 Q155 339 143.5 350.5 Q132 362 132 379 Q132 396 143.5 407.5 Q155 419 172 419 L490 419 Q462 437 451.5 461 Q441 485 448.5 508.5 Q456 532 482.5 550.5 Q509 569 555 575 Q565 577 572 572 Q579 567 579 558 L579 419 L791 419 Q817 419 832.5 406.5 Q848 394 854.5 377 Q861 360 858 341.5 Q855 323 843 310 L694 150 Q673 128 652 128.5 Q631 129 617.5 142.5 Q604 156 602 177 Q600 198 618 218 L697 304 Q708 316 702.5 327.5 Q697 339 680 339 L172 339 ZM376 -188 Q346 -188 323.5 -178.5 Q301 -169 286 -152.5 Q271 -136 263.5 -114.5 Q256 -93 256 -68 L256 155 Q256 175 270 186 Q284 197 301 197.5 Q318 198 332 188 Q346 178 346 155 L346 -41 Q346 -66 360 -83.5 Q374 -101 406 -101 L628 -101 Q645 -101 658.5 -92.5 Q672 -84 672 -57 L672 35 Q672 48 682.5 54 Q693 60 705 54 Q738 38 758.5 13.5 Q779 -11 787.5 -38 Q796 -65 793 -92 Q790 -119 777 -140 Q764 -161 741 -174.5 Q718 -188 686 -188 L376 -188 ZM876 -68 Q844 -68 824.5 -52 Q805 -36 796 -11 Q787 14 788.5 44 Q790 74 801.5 101.5 Q813 129 833 150 Q853 171 882 179 Q896 183 904.5 179.5 Q913 176 913 165 L913 37 Q913 24 920 16.5 Q927 9 938 9 L955 9 Q972 9 981 -3 Q990 -15 990.5 -29.5 Q991 -44 982 -56 Q973 -68 955 -68 L876 -68 ZM560 92 Q560 82 566.5 75.5 Q573 69 582 69 L598 69 Q613 69 623.5 58.5 Q634 48 634 33 Q634 18 623.5 7.5 Q613 -3 598 -3 L518 -3 Q481 -3 458.5 10.5 Q436 24 426 45.5 Q416 67 418 93 Q420 119 433.5 143.5 Q447 168 470.5 187.5 Q494 207 527 217 Q540 220 550 212.5 Q560 205 560 192 L560 92 ZM46 -98 Q26 -98 16 -85.5 Q6 -73 6 -58 Q6 -43 16 -30.5 Q26 -18 46 -18 L63 -18 Q74 -18 81 -11 Q88 -4 88 7 L88 115 Q88 137 102 148 Q116 159 133 159 Q150 159 164 148 Q178 137 178 115 L178 -18 Q178 -51 154.5 -74.5 Q131 -98 98 -98 L46 -98 Z" /><glyph glyph-name="cid3266" unicode="&#x5982;" d="M77 553 L42 553 Q20 553 9.5 565.5 Q-1 578 -1 592.5 Q-1 607 10 619.5 Q21 632 42 632 L77 632 L77 726 Q77 761 95.5 778.5 Q114 796 136.5 796 Q159 796 177.5 778.5 Q196 761 196 726 L196 632 L369 632 Q401 632 423.5 612 Q446 592 446 563 L446 300 Q446 271 442 241 Q438 211 423 186 L346 58 L469 -89 Q490 -115 487.5 -138.5 Q485 -162 468.5 -175.5 Q452 -189 427 -187 Q402 -185 380 -158 L285 -44 L251 -101 Q226 -142 199 -167 Q172 -192 142.5 -192.5 Q113 -193 81 -166 Q49 -139 16 -76 Q8 -60 13.5 -48.5 Q19 -37 36 -37 L129 -37 Q163 -37 179 -26.5 Q195 -16 210 9 L222 29 L125 145 Q111 161 102 177.5 Q93 194 87.5 213 Q82 232 79.5 254 Q77 276 77 304 L77 553 ZM748 -168 Q734 -168 725 -158 Q716 -148 716 -134 Q716 -120 725 -110 Q734 -100 748 -100 L803 -100 Q824 -100 839.5 -71 Q855 -42 865.5 6 Q876 54 881 115 Q886 176 886 239.5 Q886 303 881 364 Q876 425 866 473 Q856 521 841.5 550 Q827 579 808 579 L749 579 Q714 579 702 559.5 Q690 540 690 517 L690 -140 Q690 -152 684 -159.5 Q678 -167 667 -165 Q625 -159 593 -122.5 Q561 -86 539.5 -29 Q518 28 507.5 101.5 Q497 175 497 255 Q497 349 509.5 426.5 Q522 504 546 560 Q570 616 605.5 647 Q641 678 686 678 L847 678 Q878 678 902.5 641.5 Q927 605 943.5 545.5 Q960 486 968.5 410 Q977 334 977.5 255 Q978 176 970 100 Q962 24 945.5 -35.5 Q929 -95 903 -131.5 Q877 -168 842 -168 L748 -168 ZM196 553 L196 302 Q196 263 206 238 Q216 213 231 196 L284 132 L339 223 Q347 237 349.5 253.5 Q352 270 352 286 L352 523 Q352 535 342.5 544 Q333 553 319 553 L196 553 Z" /><glyph glyph-name="cid3389" unicode="&#x5e08;" d="M867 492 Q936 492 960.5 463.5 Q985 435 985 378 L985 156 Q985 123 976.5 95 Q968 67 954 46 Q940 25 921 12.5 Q902 0 881 -2 Q870 -3 862.5 1.5 Q855 6 855 17 L855 380 Q855 393 846 401.5 Q837 410 825 410 L741 410 L741 -72 Q741 -96 732 -118 Q723 -140 707.5 -157.5 Q692 -175 671 -185 Q650 -195 626 -195 Q618 -195 612.5 -190 Q607 -185 607 -177 L607 410 L520 410 Q504 410 496.5 398.5 Q489 387 489 370 L489 56 Q489 37 475.5 24 Q462 11 444 11 Q425 11 412 24 Q399 37 399 56 L399 400 Q399 450 426 471 Q453 492 491 492 L607 492 L607 602 Q607 628 592.5 640 Q578 652 557 652 L426 652 Q409 652 398 663.5 Q387 675 387 692 Q387 709 398 720.5 Q409 732 426 732 L950 732 Q967 732 978 720.5 Q989 709 989 692 Q989 675 978 663.5 Q967 652 950 652 L781 652 Q741 652 741 602 L741 492 L867 492 ZM315 -53 Q315 -115 288 -149 Q261 -183 223.5 -185.5 Q186 -188 145.5 -158 Q105 -128 78 -63 Q72 -48 76.5 -36 Q81 -24 96 -24 L177 -24 Q206 -24 215.5 -11.5 Q225 1 225 24 L225 743 Q225 765 239 776 Q253 787 270 787 Q287 787 301 776 Q315 765 315 743 L315 -53 ZM46 615 Q46 632 58.5 644 Q71 656 88 656 Q105 656 117.5 644 Q130 632 130 615 L130 127 Q130 110 117.5 97.5 Q105 85 88 85 Q71 85 58.5 97.5 Q46 110 46 127 L46 615 Z" /><glyph glyph-name="cid3415" unicode="&#x4e16;" d="M509 53 Q481 53 457 71 Q433 89 433 129 L433 533 L283 533 L283 -22 Q283 -60 300.5 -77.5 Q318 -95 353 -95 L917 -95 Q939 -94 950.5 -106.5 Q962 -119 962 -134 Q962 -149 950.5 -161.5 Q939 -174 917 -175 L288 -175 Q237 -175 202 -142.5 Q167 -110 146.5 -55 Q126 0 117.5 71.5 Q109 143 110.5 222 Q112 301 122 381 Q132 461 147 533 L43 533 Q26 533 14.5 544.5 Q3 556 3 573 Q3 590 14.5 601.5 Q26 613 43 613 L166 613 Q183 673 201.5 717 Q220 761 240 780 Q254 794 268.5 786.5 Q283 779 283 759 L283 613 L433 613 L433 751 Q433 773 447 784 Q461 795 478 795 Q495 795 509 784 Q523 773 523 751 L523 613 L742 613 L742 751 Q742 773 756 784 Q770 795 787 795 Q804 795 818 784 Q832 773 832 751 L832 613 L957 613 Q974 613 985.5 601.5 Q997 590 997 573 Q997 556 985.5 544.5 Q974 533 957 533 L832 533 L832 123 Q832 94 812 73.5 Q792 53 763 53 L509 53 ZM712 132 Q724 132 733 141 Q742 150 742 162 L742 533 L523 533 L523 162 Q523 150 532 141 Q541 132 553 132 L712 132 Z" /><glyph glyph-name="cid3422" unicode="&#x662f;" d="M218 -70 Q202 -141 173.5 -167.5 Q145 -194 114 -188 Q83 -182 53.5 -149 Q24 -116 7 -68 Q5 -60 8.5 -48.5 Q12 -37 26 -37 L81 -37 Q115 -37 125.5 -24.5 Q136 -12 142 17 L171 154 Q177 180 194.5 190.5 Q212 201 229.5 198 Q247 195 258.5 179 Q270 163 264 136 L247 63 L416 -57 Q432 -68 450 -76 L450 225 L50 225 Q33 225 21.5 236.5 Q10 248 10 265 Q10 282 21.5 293.5 Q33 305 50 305 L950 305 Q967 305 978.5 293.5 Q990 282 990 265 Q990 248 978.5 236.5 Q967 225 950 225 L580 225 L580 109 L893 109 Q910 109 921.5 97.5 Q933 86 933 69 Q933 52 921.5 40.5 Q910 29 893 29 L580 29 L580 -88 L938 -88 Q955 -88 966.5 -99.5 Q978 -111 978 -128 Q978 -145 966.5 -156.5 Q955 -168 938 -168 L478 -168 Q442 -168 411.5 -157 Q381 -146 352 -124 L227 -29 L218 -70 ZM325 369 Q308 369 298.5 380.5 Q289 392 288.5 406.5 Q288 421 296.5 432.5 Q305 444 325 444 L747 444 Q774 444 791.5 460.5 Q809 477 817.5 502 Q826 527 825.5 556.5 Q825 586 816.5 611 Q808 636 792 652.5 Q776 669 754 669 L292 669 Q279 669 270 658.5 Q261 648 261 634 L261 402 Q261 388 251.5 376.5 Q242 365 229 367 Q175 371 140.5 401 Q106 431 90 474 Q74 517 76 566.5 Q78 616 96 658 Q114 700 147.5 727.5 Q181 755 228 755 L771 755 Q818 755 849.5 726.5 Q881 698 897 655 Q913 612 913 562 Q913 512 896.5 469 Q880 426 847 397.5 Q814 369 765 369 L325 369 ZM336 516 Q319 516 307.5 527.5 Q296 539 296 556 Q296 573 307.5 584.5 Q319 596 336 596 L737 596 Q754 596 765 584.5 Q776 573 776 556 Q776 539 765 527.5 Q754 516 737 516 L336 516 Z" /><glyph glyph-name="cid3498" unicode="&#x8bf4;" d="M550 791 Q579 789 579 772 L579 611 Q579 608 578 607 L757 607 L815 758 Q823 778 840 784 Q857 790 872.5 784.5 Q888 779 897 764.5 Q906 750 898 729 L849 607 L871 607 Q912 607 940 577.5 Q968 548 982 503.5 Q996 459 996.5 407.5 Q997 356 983 311.5 Q969 267 940 237.5 Q911 208 866 208 L554 208 Q541 208 532 218 Q523 228 523 242 Q523 256 532 266 Q541 276 554 276 L842 276 Q862 276 876.5 294.5 Q891 313 898 341 Q905 369 905.5 401.5 Q906 434 899.5 462 Q893 490 878.5 508.5 Q864 527 842 527 L515 527 Q504 527 496 518.5 Q488 510 488 497 L488 236 Q488 223 479.5 216 Q471 209 460 211 Q416 217 383.5 249 Q351 281 333.5 325 Q316 369 315 418.5 Q314 468 332 510 Q350 552 388.5 579.5 Q427 607 489 607 L491 607 Q462 621 442.5 646.5 Q423 672 423 698 Q423 722 433.5 740 Q444 758 462 770 Q480 782 503 787 Q526 792 550 791 ZM271 -109 Q290 -109 300 -121.5 Q310 -134 310 -149 Q310 -164 300 -176.5 Q290 -189 271 -189 L205 -189 Q163 -189 136.5 -167.5 Q110 -146 110 -94 L110 387 Q110 407 101 417 Q92 427 69 427 L45 427 Q25 427 15.5 439.5 Q6 452 6 467 Q6 482 15.5 494.5 Q25 507 45 507 L130 507 Q215 507 215 422 L215 -69 Q215 -90 219.5 -99.5 Q224 -109 245 -109 L271 -109 ZM540 -66 Q522 -138 489 -168 Q456 -198 420 -194 Q384 -190 351 -157 Q318 -124 301 -71 Q296 -57 300.5 -47 Q305 -37 319 -37 L409 -37 Q438 -37 446.5 -27 Q455 -17 461 6 L490 119 Q496 142 513 152 Q530 162 547.5 160 Q565 158 576 143.5 Q587 129 581 103 L540 -66 ZM878 -183 Q818 -183 790.5 -153 Q763 -123 763 -79 L763 111 Q763 133 777 144 Q791 155 808 155 Q825 155 839 144 Q853 133 853 111 L853 -51 Q853 -76 864 -88.5 Q875 -101 903 -101 L957 -101 Q977 -101 987 -114 Q997 -127 997 -142 Q997 -157 987 -170 Q977 -183 957 -183 L878 -183 ZM145 573 Q105 573 82 588 Q59 603 51.5 625.5 Q44 648 50 675 Q56 702 73 725.5 Q90 749 117 765.5 Q144 782 179 784 Q190 785 197 778.5 Q204 772 204 761 L204 680 Q204 667 210.5 658 Q217 649 231 649 L236 649 Q258 649 269 637 Q280 625 280.5 611 Q281 597 270 585 Q259 573 236 573 L145 573 Z" /><glyph glyph-name="cid3570" unicode="&#x5979;" d="M751 579 L885 579 Q932 579 955 560 Q978 541 978 492 L978 278 Q978 251 969.5 228 Q961 205 947 187 Q933 169 914.5 157 Q896 145 875 140 Q865 138 856 144.5 Q847 151 847 164 L847 472 Q847 484 838.5 491.5 Q830 499 819 499 L751 499 L751 75 Q751 56 738 43 Q725 30 707 30 Q688 30 675 43 Q662 56 662 75 L662 499 L558 499 L558 -25 Q558 -62 570 -78.5 Q582 -95 612 -95 L808 -95 Q840 -95 850 -76.5 Q860 -58 860 -26 L860 68 Q860 76 867 84 Q874 92 886 89 Q919 79 942.5 55.5 Q966 32 978.5 2.5 Q991 -27 992.5 -58 Q994 -89 983.5 -115 Q973 -141 950.5 -158 Q928 -175 893 -175 L593 -175 Q554 -175 529.5 -162.5 Q505 -150 491 -129 Q477 -108 472 -80 Q467 -52 467 -20 L467 499 L434 499 Q418 499 407 510.5 Q396 522 396 539 Q396 556 407 567.5 Q418 579 434 579 L467 579 L467 703 Q467 722 480 735 Q493 748 512 748 Q530 748 544 735 Q558 722 558 703 L558 579 L662 579 L662 756 Q662 775 675 788 Q688 801 707 801 Q725 801 738 788 Q751 775 751 756 L751 579 ZM71 552 L50 552 Q28 552 17.5 564.5 Q7 577 7 591.5 Q7 606 18 618.5 Q29 631 50 631 L71 631 L71 743 Q71 771 88 784.5 Q105 798 125.5 798 Q146 798 163 783.5 Q180 769 180 741 L180 631 L291 631 Q323 631 345.5 611 Q368 591 368 562 L368 260 Q368 231 366.5 206.5 Q365 182 351 156 L295 54 L402 -65 Q422 -88 419.5 -110.5 Q417 -133 402 -146 Q387 -159 363.5 -157 Q340 -155 317 -129 L242 -43 L204 -113 Q181 -155 154.5 -173 Q128 -191 102 -187 Q76 -183 52.5 -157.5 Q29 -132 13 -87 Q7 -70 10.5 -59 Q14 -48 31 -48 L92 -48 Q104 -48 112.5 -47.5 Q121 -47 128 -43.5 Q135 -40 141 -33 Q147 -26 154 -13 L178 30 L105 114 Q84 138 77.5 171 Q71 204 71 242 L71 552 ZM180 552 L180 260 Q180 221 185.5 196.5 Q191 172 206 155 L231 127 L265 190 Q273 204 274 220 Q275 236 275 252 L274 522 Q274 534 264.5 543 Q255 552 241 552 L180 552 Z" /><glyph glyph-name="cid3655" unicode="&#x6311;" d="M233 177 L233 -69 Q233 -93 224 -115.5 Q215 -138 199 -155 Q183 -172 162 -182.5 Q141 -193 117 -193 Q109 -193 103.5 -187.5 Q98 -182 98 -174 L98 177 L44 177 Q27 177 15.5 188.5 Q4 200 4 217 Q4 234 15.5 245.5 Q27 257 44 257 L98 257 L98 518 L44 518 Q27 518 15.5 529.5 Q4 541 4 558 Q4 575 15.5 586.5 Q27 598 44 598 L98 598 L98 726 Q98 757 119 773.5 Q140 790 165.5 790 Q191 790 212 774.5 Q233 759 233 726 L233 598 L279 598 Q296 598 307.5 586.5 Q319 575 319 558 Q319 541 307.5 529.5 Q296 518 279 518 L233 518 L233 257 L279 257 Q296 257 307.5 245.5 Q319 234 319 217 Q319 200 307.5 188.5 Q296 177 279 177 L233 177 ZM812 -189 Q751 -189 724 -159 Q697 -129 697 -79 L697 752 Q697 771 710 784 Q723 797 742 797 Q761 797 774 784 Q787 771 787 752 L787 -48 Q787 -71 795.5 -81 Q804 -91 817 -91 L838 -91 Q857 -91 863.5 -77.5 Q870 -64 870 -47 L870 48 Q870 61 878 65 Q886 69 898 65 Q927 55 948 32.5 Q969 10 979.5 -18 Q990 -46 991 -76.5 Q992 -107 982.5 -132 Q973 -157 953 -173 Q933 -189 901 -189 L812 -189 ZM540 752 Q540 771 553 784 Q566 797 585 797 Q604 797 617 784 Q630 771 630 752 L630 306 Q630 285 629 268 Q628 251 626.5 237 Q625 223 623 209 Q621 195 618 180 L581 -47 Q569 -121 539 -158 Q509 -195 472.5 -196 Q436 -197 398 -163 Q360 -129 333 -63 Q327 -49 332 -39.5 Q337 -30 351 -30 L438 -30 Q496 -30 504 23 L531 204 Q534 225 537 248.5 Q540 272 540 303 L540 752 ZM894 105 Q867 105 849.5 126 Q832 147 824.5 178.5 Q817 210 818.5 246.5 Q820 283 830.5 314.5 Q841 346 860 367.5 Q879 389 907 390 Q917 391 921.5 384.5 Q926 378 926 367 L926 212 Q926 185 951 185 L955 185 Q976 185 985.5 172.5 Q995 160 994 145 Q993 130 983 117.5 Q973 105 955 105 L894 105 ZM357 100 Q340 100 328.5 111 Q317 122 317 139 Q317 156 328.5 167.5 Q340 179 357 179 L359 179 Q389 179 395 190 Q401 201 401 234 L401 347 Q401 366 415 379 Q429 392 448 392 Q466 392 479 379 Q492 366 492 347 L492 224 Q492 160 468 130 Q444 100 396 100 L357 100 ZM467 467 Q448 465 429 471.5 Q410 478 394.5 492 Q379 506 369.5 529 Q360 552 360 584 Q360 610 369.5 632 Q379 654 394.5 669.5 Q410 685 429 693 Q448 701 467 701 Q476 700 482.5 696 Q489 692 489 681 L489 489 Q489 469 467 467 ZM885 675 Q892 697 908.5 704 Q925 711 940.5 706 Q956 701 965.5 685.5 Q975 670 968 647 L922 501 Q915 478 898.5 471.5 Q882 465 866.5 470.5 Q851 476 841.5 491.5 Q832 507 839 529 L885 675 Z" /><glyph glyph-name="cid3664" unicode="&#x542c;" d="M853 -51 Q853 -87 842.5 -113 Q832 -139 814 -156 Q796 -173 773.5 -181.5 Q751 -190 727 -190 Q719 -190 713.5 -184.5 Q708 -179 708 -171 L708 318 Q708 335 696.5 346.5 Q685 358 668 358 L494 358 L494 -60 Q494 -132 471.5 -160.5 Q449 -189 417.5 -187 Q386 -185 352 -158 Q318 -131 294 -90 Q286 -77 288 -67 Q290 -57 304 -57 L356 -57 Q382 -57 393 -45.5 Q404 -34 404 -8 L404 618 Q404 650 425.5 674 Q447 698 489 698 L783 698 Q797 698 806.5 707 Q816 716 816 730 L816 772 Q816 783 824 790 Q832 797 843 796 Q879 793 905.5 779.5 Q932 766 948 746.5 Q964 727 968.5 705 Q973 683 966 664.5 Q959 646 939.5 634 Q920 622 888 622 L518 622 Q505 622 499.5 613.5 Q494 605 494 592 L494 438 L960 438 Q977 438 988 426.5 Q999 415 999 398 Q999 381 988 369.5 Q977 358 960 358 L893 358 Q876 358 864.5 346.5 Q853 335 853 318 L853 -51 ZM182 -42 Q170 -42 164 -31 Q158 -20 158 -6.5 Q158 7 164 18.5 Q170 30 182 30 L217 30 Q229 30 237 70.5 Q245 111 249 172 Q253 233 253 303.5 Q253 374 249 435 Q245 496 237 536.5 Q229 577 217 577 L172 577 Q155 577 144.5 566.5 Q134 556 134 530 L134 -14 Q134 -26 128 -35.5 Q122 -45 114 -44 Q86 -40 65.5 -9.5 Q45 21 31.5 69.5 Q18 118 11 180 Q4 242 4 310 Q4 425 14 496.5 Q24 568 41.5 608 Q59 648 83.5 662.5 Q108 677 137 677 L251 677 Q272 677 288.5 646 Q305 615 316 564.5 Q327 514 333 449.5 Q339 385 339 317.5 Q339 250 334 185.5 Q329 121 317.5 70.5 Q306 20 289 -11 Q272 -42 249 -42 L182 -42 Z" /><glyph glyph-name="cid3684" unicode="&#x7edf;" d="M132 754 Q144 780 166.5 786.5 Q189 793 209 785 Q229 777 240 757 Q251 737 239 711 L142 500 Q129 471 134.5 457 Q140 443 168 443 L214 443 L269 544 Q283 572 305 579 Q327 586 345 578.5 Q363 571 372 552 Q381 533 369 510 L165 137 Q156 120 166 103.5 Q176 87 208 87 L298 87 Q315 87 326 75.5 Q337 64 337 47 Q337 30 326 18.5 Q315 7 298 7 L108 7 Q79 7 61.5 17.5 Q44 28 36 44.5 Q28 61 29.5 80.5 Q31 100 40 118 L172 364 L95 364 Q34 364 13 402 Q-8 440 22 507 L132 754 ZM858 446 Q858 467 872 478 Q886 489 903.5 489.5 Q921 490 935 479 Q949 468 949 446 L949 352 Q949 297 922.5 268 Q896 239 835 239 L527 239 Q482 239 455 260 Q428 281 417 313 Q406 345 409.5 384 Q413 423 430 459.5 Q447 496 476 524.5 Q505 553 545 565 Q559 569 570 564 Q581 559 581 545 L581 363 Q581 345 594 332 Q607 319 625 319 L820 319 Q837 319 847.5 328.5 Q858 338 858 352 L858 446 ZM420 596 Q403 596 391.5 607.5 Q380 619 380 636 Q380 653 391.5 664.5 Q403 676 420 676 L663 676 L663 750 Q663 772 677 783 Q691 794 707.5 794 Q724 794 738 783 Q752 772 752 750 L752 676 L957 676 Q974 676 985 664.5 Q996 653 996 636 Q996 619 985 607.5 Q974 596 957 596 L420 596 ZM604 -63 Q590 -132 557.5 -163 Q525 -194 487 -191.5 Q449 -189 412.5 -155.5 Q376 -122 354 -63 Q349 -49 354.5 -37 Q360 -25 375 -25 L462 -25 Q491 -25 502 -12.5 Q513 0 518 23 L544 154 Q549 181 567 190 Q585 199 603.5 195 Q622 191 635 176.5 Q648 162 644 142 L604 -63 ZM824 -181 Q787 -181 763.5 -155 Q740 -129 729.5 -90 Q719 -51 722 -5 Q725 41 740.5 81 Q756 121 784 149 Q812 177 852 180 Q872 181 872 156 L872 -68 Q872 -82 879 -91.5 Q886 -101 899 -101 L955 -101 Q977 -101 987 -113.5 Q997 -126 996.5 -141 Q996 -156 985 -168.5 Q974 -181 955 -181 L824 -181 ZM55 -173 Q38 -173 26.5 -161.5 Q15 -150 15 -133 Q15 -116 26.5 -104.5 Q38 -93 55 -93 L293 -93 Q310 -93 321.5 -104.5 Q333 -116 333 -133 Q333 -150 321.5 -161.5 Q310 -173 293 -173 L55 -173 Z" /><glyph glyph-name="cid3695" unicode="&#x9014;" d="M342 233 Q325 233 313.5 244.5 Q302 256 302 273 Q302 290 313.5 301 Q325 312 342 312 L595 312 L595 394 Q595 406 586.5 414.5 Q578 423 565 423 L517 423 Q500 423 488.5 434.5 Q477 446 477 463 Q477 480 488.5 491.5 Q500 503 517 503 L806 503 Q823 503 834.5 491.5 Q846 480 846 463 Q846 446 834.5 434.5 Q823 423 806 423 L758 423 Q745 423 736.5 414.5 Q728 406 728 394 L728 312 L936 312 Q953 312 964 301 Q975 290 975 273 Q975 256 964 244.5 Q953 233 936 233 L728 233 L728 54 Q728 3 697 -32 Q666 -67 615 -67 Q607 -67 601 -61 Q595 -55 595 -47 L595 233 L342 233 ZM954 -103 Q971 -103 982.5 -114.5 Q994 -126 994 -143 Q994 -160 982.5 -171.5 Q971 -183 954 -183 L229 -183 Q187 -183 158 -154 Q129 -125 129 -83 L129 385 Q129 406 121.5 420.5 Q114 435 83 435 L45 435 Q25 435 15 447.5 Q5 460 5 475 Q5 490 15 502.5 Q25 515 45 515 L125 515 Q167 515 193 489 Q219 463 219 421 L219 -53 Q219 -74 234 -88.5 Q249 -103 269 -103 L954 -103 ZM468 760 Q476 782 493 788.5 Q510 795 525.5 790.5 Q541 786 550 771.5 Q559 757 551 736 L528 676 L887 676 Q927 676 951.5 659.5 Q976 643 987 618.5 Q998 594 996.5 564.5 Q995 535 983 508.5 Q971 482 950 463.5 Q929 445 901 441 Q884 439 877 447 Q870 455 870 467 L870 566 Q870 580 858.5 588 Q847 596 830 596 L498 596 L465 509 Q447 462 416.5 442 Q386 422 352.5 426 Q319 430 289 457 Q259 484 243 531 Q238 545 240.5 554.5 Q243 564 259 564 L346 564 Q361 564 371.5 565.5 Q382 567 388.5 570.5 Q395 574 399.5 580 Q404 586 408 596 L468 760 ZM154 583 Q117 583 94 596.5 Q71 610 61.5 630.5 Q52 651 55.5 676 Q59 701 73.5 724 Q88 747 114 765.5 Q140 784 176 791 Q186 793 194.5 790 Q203 787 203 776 L203 692 Q203 662 231 662 L241 662 Q260 662 269 649.5 Q278 637 277.5 622 Q277 607 267.5 595 Q258 583 241 583 L154 583 ZM954 39 Q974 39 984 26.5 Q994 14 994 -0.5 Q994 -15 984 -27.5 Q974 -40 954 -40 L877 -40 Q843 -40 821.5 -25 Q800 -10 791 12.5 Q782 35 784 62 Q786 89 798.5 113 Q811 137 832.5 155 Q854 173 885 178 Q895 180 902.5 175.5 Q910 171 910 160 L910 70 Q910 39 937 39 L954 39 ZM325 -40 Q306 -40 296.5 -27.5 Q287 -15 287 -0.5 Q287 14 296.5 26.5 Q306 39 325 39 L380 39 Q403 39 417 49.5 Q431 60 431 83 L431 137 Q431 158 445 168.5 Q459 179 476 179 Q493 179 507 168.5 Q521 158 521 137 L521 68 Q521 42 511.5 22 Q502 2 486.5 -12 Q471 -26 450 -33 Q429 -40 405 -40 L325 -40 Z" /><glyph glyph-name="cid3907" unicode="&#x73b0;" d="M588 681 Q568 681 559.5 671 Q551 661 551 635 L551 200 Q551 189 544 180.5 Q537 172 526 174 Q490 179 463 207 Q436 235 418.5 277.5 Q401 320 393 372 Q385 424 386.5 477.5 Q388 531 398 582 Q408 633 427.5 672.5 Q447 712 475 736 Q503 760 540 760 L878 760 Q907 760 927.5 739.5 Q948 719 948 690 L948 233 Q948 211 934 200 Q920 189 902.5 189 Q885 189 871 200 Q857 211 857 233 L857 650 Q857 662 848 671.5 Q839 681 827 681 L588 681 ZM47 652 Q30 652 18.5 663.5 Q7 675 7 692 Q7 709 18.5 720.5 Q30 732 47 732 L298 732 Q315 732 326.5 720.5 Q338 709 338 692 Q338 675 326.5 663.5 Q315 652 298 652 L254 652 Q246 652 240.5 646 Q235 640 235 632 L235 374 L293 374 Q310 374 321.5 362.5 Q333 351 333 334 Q333 317 321.5 305.5 Q310 294 293 294 L235 294 L235 122 Q235 61 209 22 Q183 -17 131 -17 Q123 -17 117 -11.5 Q111 -6 111 2 L111 294 L52 294 Q35 294 23.5 305.5 Q12 317 12 334 Q12 351 23.5 362.5 Q35 374 52 374 L111 374 L111 632 Q111 640 105 646 Q99 652 91 652 L47 652 ZM672 559 Q672 581 686 592 Q700 603 717 603 Q734 603 748 592 Q762 581 762 559 L762 310 Q762 273 757 241 Q752 209 739 179 L633 -66 Q606 -128 570.5 -159 Q535 -190 498.5 -190 Q462 -190 429 -160.5 Q396 -131 374 -73 Q368 -56 374 -47.5 Q380 -39 392 -39 L500 -39 Q527 -39 540 -31.5 Q553 -24 563 -1 L655 206 Q666 229 669 249.5 Q672 270 672 298 L672 559 ZM817 -184 Q781 -184 759 -166 Q737 -148 726.5 -119 Q716 -90 717 -54 Q718 -18 727.5 19.5 Q737 57 754.5 91.5 Q772 126 796 151 Q800 156 807 158 Q814 160 820.5 158.5 Q827 157 831.5 151 Q836 145 836 134 L836 -68 Q836 -95 850 -101.5 Q864 -108 877 -108 L951 -108 Q973 -108 984 -120 Q995 -132 995.5 -146 Q996 -160 985 -172 Q974 -184 951 -184 L817 -184 ZM47 -128 Q30 -128 18.5 -116.5 Q7 -105 7 -88 Q7 -71 18.5 -59.5 Q30 -48 47 -48 L298 -48 Q315 -48 326.5 -59.5 Q338 -71 338 -88 Q338 -105 326.5 -116.5 Q315 -128 298 -128 L47 -128 Z" /><glyph glyph-name="cid3983" unicode="&#x2f3c;&#x5fc3;" d="M405 -184 Q375 -184 352.5 -174.5 Q330 -165 315 -149 Q300 -133 292.5 -111 Q285 -89 285 -65 L285 629 Q285 649 299 659 Q313 669 330 669 Q347 669 361 659 Q375 649 375 629 L375 -37 Q375 -62 388.5 -79.5 Q402 -97 434 -97 L567 -97 Q584 -97 597.5 -88.5 Q611 -80 611 -53 L611 163 Q611 177 624 186 Q637 195 648 187 Q687 160 711 122 Q735 84 744 43 Q753 2 749 -38.5 Q745 -79 728.5 -111.5 Q712 -144 684 -164 Q656 -184 619 -184 L405 -184 ZM49 -57 Q29 -57 19.5 -44.5 Q10 -32 10 -17 Q10 -2 19.5 10.5 Q29 23 49 23 L77 23 Q87 23 94.5 30 Q102 37 102 48 L102 487 Q102 509 116 520 Q130 531 146.5 531 Q163 531 177 520 Q191 509 191 487 L191 23 Q191 -10 168 -33.5 Q145 -57 112 -57 L49 -57 ZM618 523 Q618 504 622 494 Q626 484 632 480 Q638 476 644.5 476 Q651 476 656 476 L686 476 Q701 476 711.5 465.5 Q722 455 722 439 Q722 424 711.5 413.5 Q701 403 686 403 L581 403 Q531 403 505.5 429 Q480 455 472.5 494 Q465 533 472.5 580 Q480 627 497 668.5 Q514 710 537.5 741 Q561 772 586 779 Q598 783 608 775.5 Q618 768 618 755 L618 523 ZM889 -3 Q842 -3 816 24 Q790 51 781 92 Q772 133 777 182 Q782 231 797 276 Q812 321 835 355 Q858 389 885 400 Q893 403 902 397.5 Q911 392 911 381 L911 102 Q911 88 918 81 Q925 74 936 74 L953 74 Q971 74 980 62 Q989 50 989 35.5 Q989 21 980 9 Q971 -3 953 -3 L889 -3 Z" /><glyph glyph-name="cid4042" unicode="&#x9009;" d="M704 541 L704 373 L944 373 Q961 373 972.5 361.5 Q984 350 984 333 Q984 316 972.5 304.5 Q961 293 944 293 L777 293 L777 70 Q777 55 785.5 47.5 Q794 40 807 40 L823 40 Q840 40 851.5 47 Q863 54 863 76 L863 152 Q863 166 872.5 173 Q882 180 895 175 Q927 165 949 144.5 Q971 124 982 98.5 Q993 73 993 46.5 Q993 20 981.5 -2.5 Q970 -25 945.5 -39 Q921 -53 884 -53 L797 -53 Q737 -53 712.5 -23 Q688 7 688 57 L688 293 L599 293 L552 88 Q534 9 498 -23.5 Q462 -56 422.5 -52.5 Q383 -49 347 -15.5 Q311 18 293 71 Q289 83 293 95.5 Q297 108 314 108 L413 108 Q441 108 453 116 Q465 124 470 147 L506 293 L339 293 Q322 293 310.5 304.5 Q299 316 299 333 Q299 350 310.5 361.5 Q322 373 339 373 L614 373 L614 541 L412 541 Q362 541 339.5 569.5 Q317 598 320.5 634.5 Q324 671 353 705 Q382 739 435 751 Q449 754 457 749 Q465 744 465 734 L465 651 Q465 639 474.5 630 Q484 621 498 621 L614 621 L614 750 Q614 772 628 783 Q642 794 659 794 Q676 794 690 783 Q704 772 704 750 L704 621 L928 621 Q945 621 956.5 609.5 Q968 598 968 581 Q968 564 956.5 552.5 Q945 541 928 541 L704 541 ZM954 -105 Q971 -105 982.5 -116.5 Q994 -128 994 -145 Q994 -162 982.5 -173.5 Q971 -185 954 -185 L239 -185 Q197 -185 168 -156 Q139 -127 139 -85 L139 378 Q139 399 131.5 413.5 Q124 428 93 428 L45 428 Q25 428 15 440.5 Q5 453 5 468 Q5 483 15 495.5 Q25 508 45 508 L135 508 Q177 508 203 482 Q229 456 229 414 L229 -55 Q229 -76 244 -90.5 Q259 -105 279 -105 L954 -105 ZM154 571 Q121 571 99 586 Q77 601 67.5 624 Q58 647 60 674 Q62 701 76 726 Q90 751 116.5 769.5 Q143 788 181 794 Q191 796 199.5 790.5 Q208 785 208 774 L208 680 Q208 650 236 650 L251 650 Q270 650 278.5 638 Q287 626 286.5 611 Q286 596 277 583.5 Q268 571 251 571 L154 571 Z" /><glyph glyph-name="cid4048" unicode="&#x5b66;" d="M40 108 Q23 108 12 119.5 Q1 131 1 148 Q1 165 12 176 Q23 187 40 187 L439 187 Q441 213 454 233 Q467 253 499 271 L640 350 Q659 361 653 374 Q647 387 625 387 L248 387 Q225 387 213.5 399.5 Q202 412 202 427 Q202 442 213.5 454.5 Q225 467 248 467 L778 467 Q809 467 828 453 Q847 439 852 419 Q857 399 847 377.5 Q837 356 812 341 L615 223 Q599 213 590.5 205.5 Q582 198 578 187 L955 187 Q972 187 983.5 176 Q995 165 995 148 Q995 131 983.5 119.5 Q972 108 955 108 L575 108 L575 -31 Q575 -87 560 -123 Q545 -159 520.5 -177 Q496 -195 465 -195.5 Q434 -196 401 -181.5 Q368 -167 336.5 -138 Q305 -109 280 -68 Q272 -54 279 -42 Q286 -30 301 -30 L391 -30 Q420 -30 429 -15 Q438 0 438 23 L438 108 L40 108 ZM775 753 Q782 770 799.5 777.5 Q817 785 834 777 Q851 770 858 752.5 Q865 735 858 718 L819 631 L900 631 Q914 631 927 625 Q940 619 949.5 608.5 Q959 598 964.5 585 Q970 572 970 557 L970 435 Q970 413 958 402 Q946 391 932 391 Q918 391 906 402 Q894 413 894 435 L894 522 Q894 535 885 543 Q876 551 864 551 L190 551 Q173 551 161.5 539.5 Q150 528 150 511 L150 408 Q150 395 143 388.5 Q136 382 122 384 Q89 388 66.5 408.5 Q44 429 31.5 456 Q19 483 18.5 514 Q18 545 29 571 Q40 597 64 614 Q88 631 125 631 L170 631 Q148 643 134.5 662 Q121 681 121 702 Q121 719 130 734.5 Q139 750 154.5 762 Q170 774 190 781 Q210 788 232 787 Q243 787 250.5 783 Q258 779 258 771 L258 631 L474 631 Q452 643 438.5 662 Q425 681 425 702 Q425 719 434 734.5 Q443 750 458.5 762 Q474 774 494 781 Q514 788 536 787 Q547 787 554.5 783 Q562 779 562 771 L562 631 L721 631 L775 753 Z" /><glyph glyph-name="cid4153" unicode="&#x4e5f;" d="M265 -188 Q235 -188 212.5 -178.5 Q190 -169 175.5 -152.5 Q161 -136 153.5 -114.5 Q146 -93 146 -68 L146 531 L54 531 Q34 531 24 543.5 Q14 556 14 571 Q14 586 24 598.5 Q34 611 54 611 L146 611 L146 721 Q146 743 160 754 Q174 765 190.5 765 Q207 765 221 754 Q235 743 235 721 L235 611 L474 611 L474 751 Q474 770 487 783 Q500 796 519 796 Q538 796 551 783 Q564 770 564 751 L564 611 L850 611 Q892 611 918.5 587.5 Q945 564 945 522 L945 294 Q945 262 938 233 Q931 204 916.5 181 Q902 158 881 143 Q860 128 833 124 Q821 122 812 127.5 Q803 133 803 144 L803 449 Q803 461 799 475.5 Q795 490 787.5 502.5 Q780 515 769 523 Q758 531 743 531 L564 531 L564 121 Q564 102 551 89 Q538 76 519 76 Q500 76 487 89 Q474 102 474 121 L474 531 L235 531 L235 -30 Q235 -55 249 -72.5 Q263 -90 295 -90 L781 -90 Q798 -90 811.5 -82 Q825 -74 825 -46 L825 62 Q825 76 834.5 82.5 Q844 89 857 86 Q905 77 934.5 53.5 Q964 30 978 -0.5 Q992 -31 990 -64 Q988 -97 973 -124.5 Q958 -152 930.5 -170 Q903 -188 866 -188 L265 -188 Z" /><glyph glyph-name="cid4162" unicode="&#x2f00;&#x4e00;" d="M41 275 Q24 275 12.5 286 Q1 297 1 314 Q1 331 12.5 342.5 Q24 354 41 354 L955 354 Q972 354 983.5 342.5 Q995 331 995 314 Q995 297 983.5 286 Q972 275 955 275 L41 275 Z" /><glyph glyph-name="cid4322" unicode="&#x80b2;" d="M905 -72 Q905 -95 898.5 -117.5 Q892 -140 878.5 -157 Q865 -174 844 -184.5 Q823 -195 795 -195 Q786 -195 778.5 -190.5 Q771 -186 771 -176 L771 -81 L277 -81 Q260 -81 248.5 -69.5 Q237 -58 237 -41 Q237 -24 248.5 -12.5 Q260 -1 277 -1 L771 -1 L771 85 L277 85 Q260 85 248.5 96.5 Q237 108 237 125 Q237 142 248.5 153.5 Q260 165 277 165 L771 165 L771 205 Q771 226 758.5 238 Q746 250 726 250 L235 250 Q200 250 200 215 L200 -151 Q200 -174 186 -185 Q172 -196 155 -196 Q138 -196 124 -185 Q110 -174 110 -151 L110 256 Q110 289 131 310 Q152 331 185 331 L820 331 Q862 331 883.5 307 Q905 283 905 241 L905 -72 ZM452 746 Q452 765 465 778 Q478 791 496 791 Q515 791 528 778 Q541 765 541 746 L541 712 L941 712 Q958 712 969.5 700.5 Q981 689 981 672 Q981 655 969.5 643.5 Q958 632 941 632 L257 632 L257 511 Q257 492 270 479.5 Q283 467 301 467 L749 467 Q793 467 806.5 477 Q820 487 820 515 L820 548 Q821 567 834 577 Q847 587 862.5 587.5 Q878 588 891 578.5 Q904 569 905 548 L905 495 Q905 466 895.5 445.5 Q886 425 869.5 412 Q853 399 830 393 Q807 387 781 387 L216 387 Q154 387 123 414.5 Q92 442 86.5 480.5 Q81 519 99.5 561 Q118 603 156 632 L52 632 Q35 632 23.5 643.5 Q12 655 12 672 Q12 689 23.5 700.5 Q35 712 52 712 L452 712 L452 746 Z" /><glyph glyph-name="cid4404" unicode="&#x62e9;" d="M244 136 L244 -69 Q244 -93 235 -115.5 Q226 -138 210 -155 Q194 -172 173 -182.5 Q152 -193 128 -193 Q120 -193 114.5 -187.5 Q109 -182 109 -174 L109 136 L44 136 Q27 136 15.5 147.5 Q4 159 4 176 Q4 193 15.5 204.5 Q27 216 44 216 L109 216 L109 518 L44 518 Q27 518 15.5 529.5 Q4 541 4 558 Q4 575 15.5 586.5 Q27 598 44 598 L109 598 L109 726 Q109 757 130 773.5 Q151 790 176.5 790 Q202 790 223 774.5 Q244 759 244 726 L244 598 L317 598 Q334 598 345.5 586.5 Q357 575 357 558 Q357 541 345.5 529.5 Q334 518 317 518 L244 518 L244 216 L317 216 Q334 216 345.5 204.5 Q357 193 357 176 Q357 159 345.5 147.5 Q334 136 317 136 L244 136 ZM435 683 Q415 683 405.5 694.5 Q396 706 396 720 Q396 734 405.5 745.5 Q415 757 435 757 L895 757 Q917 757 932.5 745.5 Q948 734 954 716.5 Q960 699 954 678.5 Q948 658 926 641 L754 504 L881 423 Q889 418 899.5 415 Q910 412 930 412 L949 412 Q966 412 977.5 400.5 Q989 389 989 372 Q989 355 977.5 343.5 Q966 332 949 332 L897 332 Q856 332 823 354 L681 446 L610 389 Q568 357 531.5 339 Q495 321 463.5 322.5 Q432 324 406 347 Q380 370 360 420 Q357 428 359 440 Q361 452 379 452 L509 452 Q531 452 544 456.5 Q557 461 574 473 L603 496 L515 553 Q506 559 498 562.5 Q490 566 473 566 L441 566 Q421 566 411.5 578.5 Q402 591 402 606 Q402 621 411.5 633.5 Q421 646 441 646 L498 646 Q528 646 545 637.5 Q562 629 585 614 L678 554 L825 669 Q829 672 829 677.5 Q829 683 819 683 L435 683 ZM740 163 L740 36 L953 36 Q970 36 981 24.5 Q992 13 992 -4 Q992 -21 981 -32.5 Q970 -44 953 -44 L740 -44 L740 -147 Q740 -166 727 -179 Q714 -192 695 -192 Q676 -192 663 -179 Q650 -166 650 -147 L650 -44 L409 -44 Q392 -44 380.5 -32.5 Q369 -21 369 -4 Q369 13 380.5 24.5 Q392 36 409 36 L650 36 L650 163 L459 163 Q442 163 430.5 174.5 Q419 186 419 203 Q419 220 430.5 231.5 Q442 243 459 243 L650 243 L650 315 Q650 337 664 348 Q678 359 695 359 Q712 359 726 348 Q740 337 740 315 L740 243 L913 243 Q930 243 941.5 231.5 Q953 220 953 203 Q953 186 941.5 174.5 Q930 163 913 163 L740 163 Z" /><glyph glyph-name="cid4408" unicode="&#x600e;" d="M885 521 Q902 521 913.5 510 Q925 499 925 482 Q925 465 913.5 453.5 Q902 442 885 442 L500 442 L500 376 L885 376 Q902 376 913.5 364.5 Q925 353 925 336 Q925 319 913.5 307.5 Q902 296 885 296 L500 296 Q499 271 490 250 Q481 229 466 213.5 Q451 198 431 189 Q411 180 388 180 Q380 180 375 186 Q370 192 370 200 L370 590 L153 590 Q91 590 66 614 Q41 638 46.5 670.5 Q52 703 85.5 734.5 Q119 766 174 781 Q209 791 209 759 L209 709 Q209 691 222 680.5 Q235 670 253 670 L943 670 Q960 670 971.5 658.5 Q983 647 983 630 Q983 613 971.5 601.5 Q960 590 943 590 L500 590 L500 521 L885 521 ZM375 -188 Q345 -188 322.5 -178.5 Q300 -169 285 -152.5 Q270 -136 262.5 -114.5 Q255 -93 255 -68 L255 140 Q255 160 269 171 Q283 182 300 182.5 Q317 183 331 173 Q345 163 345 140 L345 -41 Q345 -66 359 -83.5 Q373 -101 405 -101 L602 -101 Q619 -101 632.5 -92.5 Q646 -84 646 -57 L646 15 Q646 28 656 33.5 Q666 39 678 34 Q731 9 752.5 -28.5 Q774 -66 769 -101.5 Q764 -137 735.5 -162.5 Q707 -188 659 -188 L375 -188 ZM880 -95 Q843 -95 820.5 -79 Q798 -63 788 -37.5 Q778 -12 780.5 19 Q783 50 795.5 79 Q808 108 829.5 131.5 Q851 155 880 167 Q893 172 902 168 Q911 164 911 153 L911 10 Q911 -3 918.5 -10.5 Q926 -18 936 -18 L953 -18 Q971 -18 980 -30 Q989 -42 989.5 -56.5 Q990 -71 981 -83 Q972 -95 953 -95 L880 -95 ZM44 -123 Q24 -123 14.5 -110.5 Q5 -98 5 -83 Q5 -68 14.5 -55.5 Q24 -43 44 -43 L62 -43 Q73 -43 80 -36 Q87 -29 87 -18 L87 105 Q87 127 101 138 Q115 149 132 149 Q149 149 163 138 Q177 127 177 105 L177 -43 Q177 -76 153.5 -99.5 Q130 -123 97 -123 L44 -123 ZM558 102 Q558 92 564.5 85.5 Q571 79 581 79 L596 79 Q611 79 621.5 68.5 Q632 58 632 43 Q632 28 621.5 17 Q611 6 596 6 L516 6 Q479 6 458 18 Q437 30 429 48.5 Q421 67 424.5 90 Q428 113 441.5 135 Q455 157 476.5 175 Q498 193 526 202 Q538 206 548 198 Q558 190 558 177 L558 102 Z" /><glyph glyph-name="cid4446" unicode="&#x6218;" d="M231 -169 Q217 -169 207 -159 Q197 -149 197 -135 Q197 -121 207 -111 Q217 -101 231 -101 L325 -101 Q352 -101 371 -76.5 Q390 -52 400 -16 Q410 20 411 63 Q412 106 402 142 Q392 178 371.5 202.5 Q351 227 319 227 L191 227 Q178 227 169.5 218.5 Q161 210 161 197 L161 -141 Q161 -154 152 -163 Q143 -172 131 -171 Q102 -169 79.5 -146.5 Q57 -124 41.5 -88.5 Q26 -53 18 -8.5 Q10 36 10.5 82 Q11 128 20 172 Q29 216 47.5 250.5 Q66 285 94.5 306 Q123 327 162 327 L223 327 L223 749 Q223 771 237 782 Q251 793 268 793 Q285 793 299 782 Q313 771 313 749 L313 595 L457 595 Q476 595 486 582.5 Q496 570 496 555 Q496 540 486 527.5 Q476 515 457 515 L313 515 L313 327 L341 327 Q395 327 430.5 290.5 Q466 254 484 198.5 Q502 143 501.5 79 Q501 15 484 -40.5 Q467 -96 432.5 -132.5 Q398 -169 347 -169 L231 -169 ZM799 -192 Q769 -192 746.5 -182.5 Q724 -173 709 -156.5 Q694 -140 686.5 -118.5 Q679 -97 679 -72 L679 161 L576 137 Q560 133 546.5 142 Q533 151 529 168 Q526 185 535 198 Q544 211 561 215 L679 243 L679 477 L577 477 Q560 477 548.5 488.5 Q537 500 537 517 Q537 534 548.5 545 Q560 556 577 556 L679 556 L679 749 Q679 768 692 781 Q705 794 724 794 Q743 794 756 781 Q769 768 769 749 L769 556 L833 556 Q847 556 857 567.5 Q867 579 867 596 L867 704 Q867 718 875 725.5 Q883 733 897 728 Q930 718 950.5 695 Q971 672 980.5 644 Q990 616 988.5 586.5 Q987 557 974.5 532.5 Q962 508 939 492.5 Q916 477 882 477 L769 477 L769 264 L930 302 Q947 306 960.5 297 Q974 288 977 271 Q981 254 972 241 Q963 228 946 224 L769 182 L769 -42 Q769 -71 782.5 -82.5 Q796 -94 809 -94 L845 -94 Q864 -94 873 -80.5 Q882 -67 882 -50 L882 25 Q882 38 890 42.5 Q898 47 911 42 Q940 31 959.5 9 Q979 -13 988 -39 Q997 -65 996 -92 Q995 -119 984 -141.5 Q973 -164 951.5 -178 Q930 -192 898 -192 L799 -192 Z" /><glyph glyph-name="cid4477" unicode="&#x54f2;" d="M312 -189 Q298 -189 288 -179 Q278 -169 278 -155 Q278 -141 288 -131 Q298 -121 312 -121 L780 -121 Q803 -121 819.5 -106 Q836 -91 844 -69 Q852 -47 852.5 -20.5 Q853 6 845 28 Q837 50 821 65 Q805 80 780 80 L264 80 Q252 80 243 71.5 Q234 63 234 50 L234 -161 Q234 -173 225.5 -182 Q217 -191 204 -191 Q152 -192 117 -165 Q82 -138 64 -96.5 Q46 -55 46 -7 Q46 41 65 82.5 Q84 124 122 152 Q160 180 219 180 L802 180 Q849 180 881.5 152.5 Q914 125 931 84 Q948 43 949 -4.5 Q950 -52 935 -93 Q920 -134 888 -161.5 Q856 -189 807 -189 L312 -189 ZM851 332 Q851 301 841 278 Q831 255 815 239.5 Q799 224 780.5 216 Q762 208 745 208 Q732 208 727 213.5 Q722 219 722 227 L722 421 Q722 438 710.5 447 Q699 456 682 456 L532 456 L532 332 Q532 267 510 239.5 Q488 212 458 213 Q428 214 397.5 239.5 Q367 265 350 307 Q344 321 347.5 330.5 Q351 340 365 340 L404 340 Q421 340 432 348 Q443 356 443 378 L443 612 Q443 644 464 668 Q485 692 527 692 L785 692 Q799 692 808.5 698.5 Q818 705 818 719 L818 761 Q818 781 839 780 Q894 776 920 750 Q946 724 946 694 Q946 664 920.5 640 Q895 616 847 616 L556 616 Q544 616 538 607 Q532 598 532 586 L532 536 L951 536 Q968 536 979.5 524.5 Q991 513 991 496 Q991 479 979.5 467.5 Q968 456 951 456 L886 456 Q851 456 851 421 L851 332 ZM44 378 Q27 378 15.5 389 Q4 400 4 417 Q4 434 15.5 445.5 Q27 457 44 457 L129 457 L129 569 L44 569 Q27 569 15.5 580.5 Q4 592 4 609 Q4 626 15.5 637.5 Q27 649 44 649 L129 649 L129 710 Q129 741 149.5 757.5 Q170 774 194 774 Q218 774 238.5 758.5 Q259 743 259 710 L259 649 L344 649 Q364 649 374 636.5 Q384 624 384 609 Q384 594 374 581.5 Q364 569 344 569 L259 569 L259 457 L344 457 Q364 457 374 444.5 Q384 432 384 417.5 Q384 403 374 390.5 Q364 378 344 378 L259 378 L259 329 Q259 305 250 282.5 Q241 260 226 242.5 Q211 225 190.5 215 Q170 205 147 205 Q139 205 134 210.5 Q129 216 129 224 L129 378 L44 378 Z" /><glyph glyph-name="cid4633" unicode="&#x51c6;" d="M379 402 Q360 394 340 398.5 Q320 403 302 420 Q284 437 268 465.5 Q252 494 242 533 Q240 541 244.5 550 Q249 559 264 559 L351 559 Q365 559 371 566.5 Q377 574 381 588 L431 758 Q437 779 454 786 Q471 793 488 788.5 Q505 784 516 769.5 Q527 755 521 734 L479 599 L676 599 Q640 615 629 643.5 Q618 672 628 701 Q638 730 666.5 752.5 Q695 775 739 778 Q753 779 762.5 776 Q772 773 772 761 L772 605 Q772 603 771.5 602 Q771 601 771 599 L948 599 Q965 599 976 587.5 Q987 576 987 559 Q987 542 976 530.5 Q965 519 948 519 L825 519 Q808 519 797 507.5 Q786 496 786 479 L786 373 L938 373 Q955 373 966 361.5 Q977 350 977 333 Q977 316 966 305 Q955 294 938 294 L786 294 L786 150 L938 150 Q955 150 966 138.5 Q977 127 977 110 Q977 93 966 81.5 Q955 70 938 70 L786 70 L786 65 Q786 36 776.5 12.5 Q767 -11 752 -27.5 Q737 -44 718 -53 Q699 -62 679 -63 Q668 -64 662 -60.5 Q656 -57 656 -44 L656 70 L469 70 L469 -76 L948 -76 Q965 -76 976 -87.5 Q987 -99 987 -116 Q987 -133 976 -144.5 Q965 -156 948 -156 L468 -156 Q466 -172 453.5 -182.5 Q441 -193 424 -193 Q405 -193 392 -180 Q379 -167 379 -148 L379 402 ZM199 291 Q216 291 227.5 279.5 Q239 268 239 251 Q239 234 227.5 222.5 Q216 211 199 211 L165 211 Q145 211 136 201.5 Q127 192 127 159 L127 -137 Q127 -156 114 -169 Q101 -182 82 -182 Q63 -182 50 -169 Q37 -156 37 -137 L37 160 Q37 291 142 291 L199 291 ZM167 505 Q167 494 173 487 Q179 480 188 480 L206 480 Q220 480 229.5 468.5 Q239 457 239 440 Q239 423 229.5 411.5 Q220 400 206 400 L144 400 Q105 400 78.5 420 Q52 440 38 471.5 Q24 503 22.5 542 Q21 581 33.5 620 Q46 659 72 693 Q98 727 138 749 Q149 755 158 752 Q167 749 167 735 L167 505 ZM469 519 L469 373 L656 373 L656 479 Q656 496 644.5 507.5 Q633 519 616 519 L469 519 ZM469 150 L656 150 L656 294 L469 294 L469 150 Z" /></font>
</defs>
</svg>
